<?xml version="1.0" encoding="UTF-8" standalone="no"?>
<!DOCTYPE svg PUBLIC "-//W3C//DTD SVG 1.1//EN" "http://www.w3.org/Graphics/SVG/1.1/DTD/svg11.dtd">
<svg width="100%" height="100%" viewBox="0 0 80 80" version="1.1" xmlns="http://www.w3.org/2000/svg" xmlns:xlink="http://www.w3.org/1999/xlink" xml:space="preserve" xmlns:serif="http://www.serif.com/" style="fill-rule:evenodd;clip-rule:evenodd;stroke-linejoin:round;stroke-miterlimit:2;">
    <g transform="matrix(1,0,0,1,-1008,-727)">
        <g transform="matrix(3.25,0,0,10,0,0)">
            <rect id="Plan-de-travail1" serif:id="Plan de travail1" x="0" y="0" width="800" height="400" style="fill:none;"/>
            <g id="Plan-de-travail11" serif:id="Plan de travail1">
                <g transform="matrix(0.307692,0,0,0.1,0,20)">
                    <path d="M1088,526.969L1088,607L1008,607L1008,526.969L1088,526.969ZM1059,539L1037,539L1037,583L1059,583L1059,539Z" style="fill:rgb(221,221,221);"/>
                </g>
                <g transform="matrix(0.307692,0,0,0.1,0,20)">
                    <path d="M1068,526.969L1068,607L1028,607L1028,526.969L1068,526.969ZM1059,539L1037,539L1037,583L1059,583L1059,539Z" style="fill:rgb(168,158,150);"/>
                </g>
                <g transform="matrix(0.307692,0,0,0.1,395.385,128.6)">
                    <path d="M-196,-478L-278,-478L-278,-560L-196,-560L-196,-478ZM-197,-559L-277,-559L-277,-479L-197,-479L-197,-559Z" style="fill:rgb(255,17,0);"/>
                </g>
                <g transform="matrix(0.307692,0,0,0.0995648,204,60.0923)">
                    <path d="M395,121.607L395,136.672" style="fill:none;"/>
                    <path d="M393,121.607L393,119.598L397,119.598L397,121.607C397,121.607 396.665,122.792 396.338,124.62C396.27,125.001 396.214,125.398 396.172,125.825C396.115,126.4 396.062,127.008 396.066,127.633C396.074,128.834 396.213,130.075 396.328,131.249C396.62,134.226 397,136.672 397,136.672L397,138.681L393,138.681L393,136.672C393,136.672 393.38,134.226 393.672,131.249C393.787,130.075 393.926,128.834 393.934,127.633C393.938,127.008 393.885,126.4 393.828,125.825C393.786,125.398 393.73,125.001 393.662,124.62C393.335,122.792 393,121.607 393,121.607Z" style="fill:rgb(77,77,77);"/>
                </g>
                <g transform="matrix(0.307692,0,0,0.0995648,204,60.0923)">
                    <path d="M395,195.93L395,212" style="fill:none;"/>
                    <path d="M393,195.93L393,193.921L397,193.921L397,195.93C397,195.93 396.664,197.202 396.338,199.144C396.27,199.55 396.214,199.975 396.172,200.43C396.115,201.044 396.062,201.692 396.066,202.358C396.074,203.638 396.213,204.963 396.328,206.215C396.62,209.386 397,212 397,212L397,214.009L393,214.009L393,212C393,212 393.38,209.386 393.672,206.215C393.787,204.963 393.926,203.638 393.934,202.358C393.938,201.692 393.885,201.044 393.828,200.43C393.786,199.975 393.73,199.55 393.662,199.144C393.336,197.202 393,195.93 393,195.93Z" style="fill:rgb(77,77,77);"/>
                </g>
                <g transform="matrix(0.307692,0,0,0.0995648,197.846,60.0923)">
                    <path d="M395,121.607L395,136.672" style="fill:none;"/>
                    <path d="M393,121.607L393,119.598L397,119.598L397,121.607C397,121.607 396.665,122.792 396.338,124.62C396.27,125.001 396.214,125.398 396.172,125.825C396.115,126.4 396.062,127.008 396.066,127.633C396.074,128.834 396.213,130.075 396.328,131.249C396.62,134.226 397,136.672 397,136.672L397,138.681L393,138.681L393,136.672C393,136.672 393.38,134.226 393.672,131.249C393.787,130.075 393.926,128.834 393.934,127.633C393.938,127.008 393.885,126.4 393.828,125.825C393.786,125.398 393.73,125.001 393.662,124.62C393.335,122.792 393,121.607 393,121.607Z" style="fill:rgb(77,77,77);"/>
                </g>
                <g transform="matrix(0.307692,0,0,0.0995648,197.846,60.0923)">
                    <path d="M395,195.93L395,212" style="fill:none;"/>
                    <path d="M393,195.93L393,193.921L397,193.921L397,195.93C397,195.93 396.664,197.202 396.338,199.144C396.27,199.55 396.214,199.975 396.172,200.43C396.115,201.044 396.062,201.692 396.066,202.358C396.074,203.638 396.213,204.963 396.328,206.215C396.62,209.386 397,212 397,212L397,214.009L393,214.009L393,212C393,212 393.38,209.386 393.672,206.215C393.787,204.963 393.926,203.638 393.934,202.358C393.938,201.692 393.885,201.044 393.828,200.43C393.786,199.975 393.73,199.55 393.662,199.144C393.336,197.202 393,195.93 393,195.93Z" style="fill:rgb(77,77,77);"/>
                </g>
                <g transform="matrix(0.307692,0,0,0.1,196.615,59.3)">
                    <path d="M395,134L423,134" style="fill:none;"/>
                    <path d="M395,136C393.896,136 393,135.104 393,134C393,132.896 393.896,132 395,132C395,132 397.278,132.342 400.6,132.662C401.306,132.729 402.054,132.786 402.84,132.828C403.911,132.885 405.041,132.938 406.2,132.934C408.424,132.926 410.739,132.787 412.92,132.672C418.412,132.382 423,132 423,132C424.104,132 425,132.896 425,134C425,135.104 424.104,136 423,136C423,136 418.412,135.618 412.92,135.328C410.739,135.213 408.424,135.074 406.2,135.066C405.041,135.062 403.911,135.115 402.84,135.172C402.054,135.214 401.306,135.271 400.6,135.338C397.278,135.658 395,136 395,136Z" style="fill:rgb(77,77,77);"/>
                </g>
                <g transform="matrix(-0.307692,0,0,0.1,448.308,67.3)">
                    <path d="M395,134L423,134" style="fill:none;"/>
                    <path d="M395,132C393.896,132 393,132.896 393,134C393,135.104 393.896,136 395,136C395,136 397.278,135.658 400.6,135.338C401.306,135.271 402.054,135.214 402.84,135.172C403.911,135.115 405.041,135.062 406.2,135.066C408.424,135.074 410.739,135.213 412.92,135.328C418.412,135.618 423,136 423,136C424.104,136 425,135.104 425,134C425,132.896 424.104,132 423,132C423,132 418.412,132.382 412.92,132.672C410.739,132.787 408.424,132.926 406.2,132.934C405.041,132.938 403.911,132.885 402.84,132.828C402.054,132.786 401.306,132.729 400.6,132.662C397.278,132.342 395,132 395,132Z" style="fill:rgb(77,77,77);"/>
                </g>
                <g transform="matrix(0.307692,0,0,0.075,196.924,61.65)">
                    <rect x="406" y="154" width="4" height="8" style="fill:rgb(217,217,217);"/>
                    <path d="M411,154L410.713,162C410.713,162.525 410.394,162.951 410,162.951L406,162.759C405.686,162.759 405.431,162.419 405.431,162C405.431,162 405.482,160 405.457,158C405.432,155.997 405.331,154 405.331,154C405.331,153.507 405.63,153.108 406,153.108L410,152.667C410.552,152.667 411,153.264 411,154ZM409.044,155.228C409.044,155.228 406.627,154.961 406.627,154.961C406.596,155.73 406.557,156.864 406.543,158C406.528,159.224 406.541,160.449 406.554,161.214L409.254,161.085L409.044,155.228Z" style="fill:rgb(77,77,77);"/>
                </g>
                <g transform="matrix(0.307692,0,0,0.1,-49.2308,24.2)">
                    <path d="M1204,490L1212,490" style="fill:none;"/>
                    <path d="M1204,492C1202.9,492 1202,491.104 1202,490C1202,488.896 1202.9,488 1204,488C1204,488 1204.56,488.312 1205.6,488.662C1205.8,488.73 1206.01,488.785 1206.24,488.828C1206.55,488.884 1206.87,488.938 1207.2,488.934C1207.85,488.926 1208.5,488.787 1209.12,488.672C1210.74,488.373 1212,488 1212,488C1213.1,488 1214,488.896 1214,490C1214,491.104 1213.1,492 1212,492C1212,492 1210.74,491.627 1209.12,491.328C1208.5,491.213 1207.85,491.074 1207.2,491.066C1206.87,491.062 1206.55,491.116 1206.24,491.172C1206.01,491.215 1205.8,491.27 1205.6,491.338C1204.56,491.688 1204,492 1204,492Z" style="fill:rgb(77,77,77);"/>
                </g>
                <g transform="matrix(0.307692,0,0,0.1,-49.2308,8.3)">
                    <path d="M1196,679L1220,661L1220,682L1196,682L1196,679Z" style="fill:rgb(77,77,77);fill-opacity:0.3;"/>
                </g>
                <g transform="matrix(0.307692,0,0,0.1,196.923,60.2)">
                    <path d="M423,134L423,184L393,184L393,134L423,134ZM419,138L397,138L397,162L419,162L419,138Z" style="fill:rgb(45,45,45);"/>
                    <path d="M423.98,134L423.983,184C423.983,184.543 423.543,184.983 423,184.983L393,184.984C392.456,184.984 392.016,184.544 392.016,184L392.018,134C392.018,133.458 392.458,133.018 393,133.018L423,133.02C423.541,133.02 423.98,133.459 423.98,134ZM422.02,134.98L393.982,134.982L393.984,183.016L422.017,183.017L422.02,134.98ZM419.98,138L419.982,162C419.982,162.543 419.543,162.982 419,162.982L397,162.984C396.456,162.984 396.016,162.544 396.016,162L396.017,138C396.017,137.457 396.457,137.017 397,137.017L419,137.02C419.541,137.02 419.98,137.459 419.98,138ZM418.02,138.98L397.983,138.982L397.984,161.016C397.984,161.016 418.018,161.018 418.018,161.018L418.02,138.98Z" style="fill:rgb(77,77,77);"/>
                </g>
                <g transform="matrix(0.411375,0,0,0.14,-174.259,-1.08)">
                    <rect x="1194" y="557" width="26.927" height="20" style="fill:rgb(45,45,45);"/>
                    <path d="M1221.66,557L1221.66,577C1221.66,577.387 1221.33,577.701 1220.93,577.701L1194,577.703C1193.59,577.703 1193.26,577.388 1193.26,577L1193.27,557C1193.27,556.612 1193.59,556.298 1194,556.298L1220.93,556.3C1221.33,556.3 1221.66,556.613 1221.66,557ZM1220.19,557.7L1194.74,557.702L1194.74,576.297L1220.19,576.299L1220.19,557.7Z" style="fill:rgb(77,77,77);"/>
                </g>
                <g transform="matrix(0.395604,0,0,0.16875,-155.429,-17.5)">
                    <path d="M1208,561.778L1208,573.63" style="fill:none;"/>
                    <path d="M1207.24,561.778C1207.24,561.457 1207.58,561.197 1208,561.197C1208.42,561.197 1208.76,561.457 1208.76,561.778L1208.76,573.63C1208.76,573.95 1208.42,574.211 1208,574.211C1207.58,574.211 1207.24,573.95 1207.24,573.63L1207.24,561.778Z" style="fill:rgb(77,77,77);"/>
                </g>
            </g>
        </g>
    </g>
</svg>
