<?xml version="1.0" encoding="UTF-8" standalone="no"?>
<!DOCTYPE svg PUBLIC "-//W3C//DTD SVG 1.1//EN" "http://www.w3.org/Graphics/SVG/1.1/DTD/svg11.dtd">
<svg width="100%" height="100%" viewBox="0 0 80 80" version="1.1" xmlns="http://www.w3.org/2000/svg" xmlns:xlink="http://www.w3.org/1999/xlink" xml:space="preserve" xmlns:serif="http://www.serif.com/" style="fill-rule:evenodd;clip-rule:evenodd;stroke-linejoin:round;stroke-miterlimit:2;">
    <g transform="matrix(1,0,0,1,-1008,-527)">
        <g transform="matrix(3.25,0,0,10,0,0)">
            <rect id="Plan-de-travail1" serif:id="Plan de travail1" x="0" y="0" width="800" height="400" style="fill:none;"/>
            <g id="Plan-de-travail11" serif:id="Plan de travail1">
                <g transform="matrix(0.307692,0,0,0.1,0,0)">
                    <path d="M1088,526.969L1088,607L1008,607L1008,526.969L1088,526.969ZM1059,589L1037,589L1037,601L1059,601L1059,589Z" style="fill:rgb(221,221,221);"/>
                </g>
                <g transform="matrix(0.307692,0,0,0.1,0,0)">
                    <path d="M1068,526.969L1068,607L1028,607L1028,526.969L1068,526.969ZM1059,589L1037,589L1037,601L1059,601L1059,589Z" style="fill:rgb(168,158,150);"/>
                </g>
                <g transform="matrix(0.307692,0,0,0.1,395.385,108.6)">
                    <path d="M-196,-478L-278,-478L-278,-560L-196,-560L-196,-478ZM-197,-559L-277,-559L-277,-479L-197,-479L-197,-559Z" style="fill:rgb(255,17,0);"/>
                </g>
                <g>
                    <g transform="matrix(1,0,0,1,196.923,40)">
                        <g transform="matrix(0.307692,0,0,0.0995648,0.923077,0.0922558)">
                            <path d="M395,116.585L395,218.026" style="fill:none;"/>
                            <path d="M393,116.585L393,114.576L397,114.576L397,116.585C397,116.585 396.655,124.94 396.338,136.873C396.271,139.43 396.213,142.15 396.172,144.988C396.115,148.869 396.062,152.966 396.066,157.161C396.074,165.208 396.213,173.607 396.328,181.507C396.618,201.347 397,218.026 397,218.026L397,220.035L393,220.035L393,218.026C393,218.026 393.382,201.347 393.672,181.507C393.787,173.607 393.926,165.208 393.934,157.161C393.938,152.966 393.885,148.869 393.828,144.988C393.787,142.15 393.729,139.43 393.662,136.873C393.345,124.94 393,116.585 393,116.585Z" style="fill:rgb(77,77,77);"/>
                        </g>
                        <g transform="matrix(0.307692,0,0,0.0995648,7.07692,0.0922558)">
                            <path d="M395,116.585L395,218.026" style="fill:none;"/>
                            <path d="M393,116.585L393,114.576L397,114.576L397,116.585C397,116.585 396.655,124.94 396.338,136.873C396.271,139.43 396.213,142.15 396.172,144.988C396.115,148.869 396.062,152.966 396.066,157.161C396.074,165.208 396.213,173.607 396.328,181.507C396.618,201.347 397,218.026 397,218.026L397,220.035L393,220.035L393,218.026C393,218.026 393.382,201.347 393.672,181.507C393.787,173.607 393.926,165.208 393.934,157.161C393.938,152.966 393.885,148.869 393.828,144.988C393.787,142.15 393.729,139.43 393.662,136.873C393.345,124.94 393,116.585 393,116.585Z" style="fill:rgb(77,77,77);"/>
                        </g>
                        <g transform="matrix(0.307692,0,0,0.1,-0.307692,-0.7)">
                            <path d="M395,134L423,134" style="fill:none;"/>
                            <path d="M395,136C393.896,136 393,135.104 393,134C393,132.896 393.896,132 395,132C395,132 397.278,132.342 400.6,132.662C401.306,132.729 402.054,132.786 402.84,132.828C403.911,132.885 405.041,132.938 406.2,132.934C408.424,132.926 410.739,132.787 412.92,132.672C418.412,132.382 423,132 423,132C424.104,132 425,132.896 425,134C425,135.104 424.104,136 423,136C423,136 418.412,135.618 412.92,135.328C410.739,135.213 408.424,135.074 406.2,135.066C405.041,135.062 403.911,135.115 402.84,135.172C402.054,135.214 401.306,135.271 400.6,135.338C397.278,135.658 395,136 395,136Z" style="fill:rgb(77,77,77);"/>
                        </g>
                        <g transform="matrix(-0.307692,0,0,0.1,251.385,1.96667)">
                            <path d="M395,134L423,134" style="fill:none;"/>
                            <path d="M395,132C393.896,132 393,132.896 393,134C393,135.104 393.896,136 395,136C395,136 397.389,135.547 400.88,135.123C401.444,135.055 402.028,134.978 402.644,134.958C402.893,134.95 403.146,134.956 403.4,134.98C404.678,135.099 405.947,135.482 407.32,135.599C407.818,135.642 408.322,135.627 408.825,135.62C410.89,135.592 412.95,135.39 414.846,135.368C415.497,135.361 416.127,135.369 416.728,135.403C420.4,135.611 423,136 423,136C424.104,136 425,135.104 425,134C425,132.896 424.104,132 423,132C423,132 420.4,132.389 416.728,132.597C416.127,132.631 415.497,132.639 414.846,132.632C412.95,132.61 410.89,132.408 408.825,132.38C408.322,132.373 407.818,132.358 407.32,132.401C405.947,132.518 404.678,132.901 403.4,133.02C403.146,133.044 402.893,133.05 402.644,133.042C402.028,133.022 401.444,132.945 400.88,132.877C397.389,132.453 395,132 395,132Z" style="fill:rgb(77,77,77);"/>
                        </g>
                        <g transform="matrix(0.307692,0,0,0.1,-0.307692,3.3)">
                            <path d="M395,134L423,134" style="fill:none;"/>
                            <path d="M395,136C393.896,136 393,135.104 393,134C393,132.896 393.896,132 395,132C395,132 397.278,132.342 400.6,132.662C401.306,132.729 402.054,132.786 402.84,132.828C403.911,132.885 405.041,132.938 406.2,132.934C408.424,132.926 410.739,132.787 412.92,132.672C418.412,132.382 423,132 423,132C424.104,132 425,132.896 425,134C425,135.104 424.104,136 423,136C423,136 418.412,135.618 412.92,135.328C410.739,135.213 408.424,135.074 406.2,135.066C405.041,135.062 403.911,135.115 402.84,135.172C402.054,135.214 401.306,135.271 400.6,135.338C397.278,135.658 395,136 395,136Z" style="fill:rgb(77,77,77);"/>
                        </g>
                        <g transform="matrix(-0.307692,0,0,0.1,251.385,7.3)">
                            <path d="M395,134L423,134" style="fill:none;"/>
                            <path d="M395,132C393.896,132 393,132.896 393,134C393,135.104 393.896,136 395,136C395,136 397.278,135.658 400.6,135.338C401.306,135.271 402.054,135.214 402.84,135.172C403.911,135.115 405.041,135.062 406.2,135.066C408.424,135.074 410.739,135.213 412.92,135.328C418.412,135.618 423,136 423,136C424.104,136 425,135.104 425,134C425,132.896 424.104,132 423,132C423,132 418.412,132.382 412.92,132.672C410.739,132.787 408.424,132.926 406.2,132.934C405.041,132.938 403.911,132.885 402.84,132.828C402.054,132.786 401.306,132.729 400.6,132.662C397.278,132.342 395,132 395,132Z" style="fill:rgb(77,77,77);"/>
                        </g>
                    </g>
                    <g transform="matrix(1,0,0,1,-49.2308,0.1)">
                        <g transform="matrix(0.307692,0,0,0.075,246.154,46.65)">
                            <rect x="406" y="154" width="4" height="8" style="fill:rgb(217,217,217);"/>
                            <path d="M411,154L410.713,162C410.713,162.525 410.394,162.951 410,162.951L406,162.759C405.686,162.759 405.431,162.419 405.431,162C405.431,162 405.482,160 405.457,158C405.432,155.997 405.331,154 405.331,154C405.331,153.507 405.63,153.108 406,153.108L410,152.667C410.552,152.667 411,153.264 411,154ZM409.044,155.228C409.044,155.228 406.627,154.961 406.627,154.961C406.596,155.73 406.557,156.864 406.543,158C406.528,159.224 406.541,160.449 406.554,161.214L409.254,161.085L409.044,155.228Z" style="fill:rgb(77,77,77);"/>
                        </g>
                        <g transform="matrix(0.282051,0,0,0.0875,30.9744,0.125)">
                            <path d="M1198.18,679.714L1217.82,675.143L1217.82,682L1198.18,682L1198.18,679.714Z" style="fill:rgb(77,77,77);fill-opacity:0.3;"/>
                        </g>
                        <g transform="matrix(0.307692,0,0,0.1,245.538,41.8)">
                            <path d="M423,168L423,184L397,184L397,168L423,168ZM419,172L401,172L401,180L419,180L419,172Z" style="fill:rgb(45,45,45);"/>
                            <path d="M423.98,168L423.982,184C423.982,184.542 423.542,184.982 423,184.982L397,184.984C396.456,184.984 396.016,184.544 396.016,184L396.017,168C396.017,167.457 396.457,167.017 397,167.017L423,167.02C423.541,167.02 423.98,167.459 423.98,168ZM422.02,168.98L397.983,168.983C397.983,168.983 397.984,183.016 397.984,183.016L422.018,183.018L422.02,168.98ZM419.98,172L419.982,180C419.982,180.542 419.542,180.982 419,180.982L401,180.984C400.456,180.984 400.016,180.544 400.016,180L400.016,172C400.016,171.457 400.457,171.016 401,171.016L419,171.02C419.541,171.02 419.98,171.459 419.98,172ZM418.02,172.98L401.984,172.983L401.984,179.016L418.019,179.018L418.02,172.98Z" style="fill:rgb(77,77,77);"/>
                        </g>
                        <g transform="matrix(0.307692,0,0,0.1,0,0.4)">
                            <path d="M1208,525L1198,529L1194,534C1194,534 1202.6,532.771 1206.32,532.24C1207.43,532.081 1208.57,532.081 1209.68,532.24C1213.4,532.771 1222,534 1222,534L1218,529L1208,525Z" style="fill:rgb(45,45,45);"/>
                            <path d="M1208.36,524.09L1218.37,528.089C1218.52,528.152 1218.66,528.254 1218.77,528.387L1222.77,533.386C1223.02,533.701 1223.05,534.137 1222.85,534.487C1222.65,534.837 1222.26,535.03 1221.86,534.973L1209.54,533.214C1209.03,533.141 1208.52,533.105 1208,533.105C1207.49,533.105 1206.97,533.141 1206.46,533.214L1194.14,534.973C1193.74,535.03 1193.35,534.838 1193.15,534.488C1192.95,534.137 1192.98,533.701 1193.23,533.386L1197.23,528.387C1197.34,528.254 1197.48,528.151 1197.63,528.088L1207.64,524.09C1207.87,523.996 1208.13,523.996 1208.36,524.09ZM1208,526.056L1198.61,529.815L1196.32,532.676L1206.18,531.265C1206.78,531.179 1207.39,531.136 1208,531.136C1208.61,531.136 1209.22,531.18 1209.82,531.266L1219.68,532.676L1217.39,529.815L1208,526.056Z" style="fill:rgb(77,77,77);"/>
                        </g>
                        <g transform="matrix(0.251396,0,0,0.145,68.1408,-26.865)">
                            <path d="M1220.93,559.691C1220.93,557.993 1219.54,556.39 1217.16,555.348C1214.95,554.382 1212.34,553.236 1210.93,552.619C1210.27,552.329 1209.46,552.172 1208.62,552.172C1207.91,552.172 1207.02,552.172 1206.31,552.172C1205.47,552.172 1204.66,552.329 1204,552.619C1202.59,553.236 1199.97,554.382 1197.77,555.348C1195.39,556.39 1194,557.993 1194,559.691C1194,565.147 1194,577 1194,577L1220.93,577L1220.93,559.691Z" style="fill:rgb(45,45,45);"/>
                            <path d="M1222.13,559.691L1222.13,577C1222.13,577.374 1221.59,577.677 1220.93,577.677L1194,577.678C1193.34,577.678 1192.8,577.375 1192.8,577L1192.8,559.691C1192.8,558.737 1193.19,557.81 1193.91,556.976C1194.64,556.141 1195.69,555.398 1197.03,554.813L1203.26,552.084C1203.69,551.893 1204.18,551.746 1204.69,551.647C1205.21,551.547 1205.75,551.495 1206.31,551.495L1208.62,551.495C1209.17,551.495 1209.72,551.547 1210.23,551.647C1210.75,551.746 1211.23,551.893 1211.67,552.084L1217.89,554.814C1219.23,555.399 1220.29,556.142 1221.01,556.976C1221.74,557.811 1222.13,558.738 1222.13,559.691ZM1219.73,559.691C1219.73,558.946 1219.42,558.223 1218.86,557.571C1218.29,556.919 1217.46,556.339 1216.42,555.882L1210.19,553.153C1209.97,553.055 1209.72,552.979 1209.45,552.927C1209.19,552.876 1208.91,552.849 1208.62,552.849L1206.31,552.85C1206.02,552.85 1205.74,552.876 1205.48,552.928C1205.21,552.979 1204.96,553.055 1204.74,553.153L1198.51,555.883C1197.46,556.34 1196.64,556.92 1196.07,557.571C1195.51,558.223 1195.2,558.946 1195.2,559.691C1195.2,559.691 1195.2,576.322 1195.2,576.322L1219.73,576.323L1219.73,559.691Z" style="fill:rgb(77,77,77);"/>
                        </g>
                        <g transform="matrix(0.307692,0,0,0.1,0,0.6)">
                            <circle cx="1208" cy="537" r="7" style="fill:rgb(45,45,45);"/>
                            <path d="M1208,529.02C1210.2,529.019 1212.2,529.913 1213.64,531.357C1215.09,532.802 1215.98,534.797 1215.98,537C1215.98,539.203 1215.09,541.199 1213.64,542.644C1212.2,544.09 1210.2,544.984 1208,544.984C1205.8,544.984 1203.8,544.089 1202.36,542.644C1200.91,541.199 1200.02,539.203 1200.02,537C1200.02,534.797 1200.91,532.802 1202.36,531.357C1203.8,529.913 1205.8,529.019 1208,529.02ZM1208,530.98C1206.34,530.981 1204.83,531.655 1203.75,532.745C1202.66,533.835 1201.98,535.339 1201.98,537C1201.98,538.66 1202.66,540.165 1203.75,541.254C1204.84,542.342 1206.34,543.016 1208,543.016C1209.66,543.016 1211.16,542.342 1212.25,541.253C1213.34,540.164 1214.02,538.66 1214.02,537C1214.02,535.339 1213.34,533.835 1212.26,532.745C1211.16,531.656 1209.66,530.981 1208,530.98Z" style="fill:rgb(77,77,77);"/>
                        </g>
                        <g transform="matrix(0.175824,0,0,0.0571429,159.297,23.6143)">
                            <circle cx="1208" cy="537" r="7" style="fill:rgb(86,86,86);"/>
                            <path d="M1208,528.284C1210.4,528.284 1212.59,529.259 1214.16,530.837C1215.74,532.414 1216.72,534.594 1216.72,537C1216.72,539.407 1215.74,541.587 1214.17,543.166C1212.59,544.745 1210.41,545.722 1208,545.722C1205.59,545.722 1203.41,544.745 1201.84,543.165C1200.26,541.587 1199.28,539.406 1199.28,537C1199.28,534.594 1200.26,532.415 1201.84,530.837C1203.41,529.26 1205.6,528.284 1208,528.284ZM1208,531.716C1206.54,531.716 1205.22,532.309 1204.27,533.266C1203.31,534.222 1202.72,535.542 1202.72,537C1202.72,538.457 1203.31,539.777 1204.27,540.732C1205.22,541.687 1206.54,542.278 1208,542.278C1209.46,542.278 1210.78,541.686 1211.73,540.731C1212.69,539.776 1213.28,538.457 1213.28,537C1213.28,535.543 1212.69,534.222 1211.73,533.266C1210.78,532.309 1209.46,531.716 1208,531.716Z" style="fill:rgb(77,77,77);"/>
                        </g>
                        <g transform="matrix(0.307692,0,0,0.1,0,3.55271e-15)">
                            <path d="M1212,557.443C1212,555.542 1210.46,554 1208.56,554C1208.19,554 1207.81,554 1207.44,554C1205.54,554 1204,555.542 1204,557.443C1204,562.669 1204,572 1204,572L1212,572L1212,557.443Z" style="fill:rgb(45,45,45);"/>
                            <path d="M1212.98,557.443L1212.98,572C1212.98,572.543 1212.54,572.983 1212,572.983L1204,572.984C1203.46,572.984 1203.02,572.543 1203.02,572L1203.02,557.443C1203.02,556.221 1203.51,555.115 1204.31,554.314C1205.12,553.513 1206.22,553.018 1207.44,553.018L1208.56,553.019C1209.78,553.019 1210.88,553.514 1211.68,554.315C1212.49,555.116 1212.98,556.222 1212.98,557.443ZM1211.02,557.443C1211.02,556.763 1210.74,556.148 1210.3,555.702C1209.85,555.257 1209.24,554.981 1208.56,554.981L1207.44,554.982C1206.76,554.982 1206.15,555.257 1205.7,555.703C1205.26,556.148 1204.98,556.764 1204.98,557.443L1204.98,571.016L1211.02,571.017L1211.02,557.443Z" style="fill:rgb(77,77,77);"/>
                        </g>
                        <g transform="matrix(0.410256,0,0,0.133333,-123.692,-18.5333)">
                            <circle cx="1207.5" cy="557.5" r="1.5" style="fill:rgb(45,45,45);"/>
                            <path d="M1207.5,555.265C1208.12,555.264 1208.68,555.515 1209.08,555.919C1209.49,556.324 1209.74,556.883 1209.74,557.5C1209.74,558.117 1209.49,558.677 1209.08,559.082C1208.68,559.488 1208.12,559.738 1207.5,559.738C1206.88,559.738 1206.32,559.487 1205.92,559.082C1205.51,558.677 1205.26,558.117 1205.26,557.5C1205.26,556.883 1205.51,556.324 1205.92,555.919C1206.32,555.515 1206.88,555.264 1207.5,555.265ZM1207.5,556.735C1207.29,556.735 1207.1,556.822 1206.96,556.96C1206.82,557.098 1206.74,557.289 1206.74,557.5C1206.74,557.711 1206.82,557.901 1206.96,558.039C1207.1,558.177 1207.29,558.262 1207.5,558.262C1207.71,558.262 1207.9,558.177 1208.04,558.039C1208.18,557.901 1208.26,557.71 1208.26,557.5C1208.26,557.289 1208.18,557.098 1208.04,556.96C1207.9,556.822 1207.71,556.735 1207.5,556.735Z" style="fill:rgb(77,77,77);"/>
                        </g>
                        <g transform="matrix(0.342813,0,0,0.09,-42.2416,6.27)">
                            <rect x="1194" y="557" width="26.927" height="20" style="fill:rgb(45,45,45);"/>
                            <path d="M1221.81,557L1221.81,577C1221.81,577.602 1221.41,578.091 1220.93,578.091L1194,578.094C1193.51,578.094 1193.12,577.604 1193.12,577L1193.12,557C1193.12,556.397 1193.51,555.907 1194,555.907L1220.93,555.911C1221.41,555.911 1221.81,556.398 1221.81,557ZM1220.05,558.089L1194.88,558.092C1194.88,558.092 1194.88,575.907 1194.88,575.907L1220.05,575.909L1220.05,558.089Z" style="fill:rgb(77,77,77);"/>
                        </g>
                        <g transform="matrix(0.307692,0,0,0.1,0,0.5)">
                            <path d="M1208,565L1208,573" style="fill:none;"/>
                            <path d="M1207.02,565C1207.02,564.459 1207.46,564.02 1208,564.02C1208.54,564.02 1208.98,564.459 1208.98,565L1208.98,573C1208.98,573.541 1208.54,573.98 1208,573.98C1207.46,573.98 1207.02,573.541 1207.02,573L1207.02,565Z" style="fill:rgb(77,77,77);"/>
                        </g>
                    </g>
                </g>
            </g>
        </g>
    </g>
</svg>
