<?xml version="1.0" encoding="UTF-8" standalone="no"?>
<!DOCTYPE svg PUBLIC "-//W3C//DTD SVG 1.1//EN" "http://www.w3.org/Graphics/SVG/1.1/DTD/svg11.dtd">
<svg width="100%" height="100%" viewBox="0 0 80 80" version="1.1" xmlns="http://www.w3.org/2000/svg" xmlns:xlink="http://www.w3.org/1999/xlink" xml:space="preserve" xmlns:serif="http://www.serif.com/" style="fill-rule:evenodd;clip-rule:evenodd;stroke-linejoin:round;stroke-miterlimit:2;">
    <g transform="matrix(1,0,0,1,-1008,-927)">
        <g transform="matrix(3.25,0,0,10,0,0)">
            <rect id="Plan-de-travail1" serif:id="Plan de travail1" x="0" y="0" width="800" height="400" style="fill:none;"/>
            <g id="Plan-de-travail11" serif:id="Plan de travail1">
                <g transform="matrix(0.307692,0,0,0.1,0,40)">
                    <rect x="1008" y="526.969" width="80" height="80.031" style="fill:rgb(221,221,221);"/>
                </g>
                <g transform="matrix(0.307692,0,0,0.1,0,0)">
                    <path d="M1028,946L1028,926.969L1068,926.969L1068,946C1068,950.95 1058.82,955.96 1047.78,955.96C1036.74,955.96 1028,950.95 1028,946Z" style="fill:rgb(168,158,150);"/>
                </g>
                <g transform="matrix(-0.307692,1.22465e-17,-3.76814e-17,-0.1,644.926,193.39)">
                    <path d="M1028,951.897L1028,926.897L1068,926.897L1068,951.897C1068,956.847 1059.04,961.922 1048,961.922C1036.97,961.922 1028,956.847 1028,951.897Z" style="fill:rgb(168,158,150);"/>
                </g>
                <g transform="matrix(0.307692,0,0,0.1,395.385,148.6)">
                    <path d="M-196,-478L-278,-478L-278,-560L-196,-560L-196,-478ZM-197,-559L-277,-559L-277,-479L-197,-479L-197,-559Z" style="fill:rgb(255,17,0);"/>
                </g>
                <g transform="matrix(0.307692,0,0,0.0995648,204,80.0907)">
                    <path d="M395,121.607L395,136.672" style="fill:none;"/>
                    <path d="M393,121.607L393,119.598L397,119.598L397,121.607C397,121.607 396.665,122.792 396.338,124.62C396.27,125.001 396.214,125.398 396.172,125.825C396.115,126.4 396.062,127.008 396.066,127.633C396.074,128.834 396.213,130.075 396.328,131.249C396.62,134.226 397,136.672 397,136.672L397,138.681L393,138.681L393,136.672C393,136.672 393.38,134.226 393.672,131.249C393.787,130.075 393.926,128.834 393.934,127.633C393.938,127.008 393.885,126.4 393.828,125.825C393.786,125.398 393.73,125.001 393.662,124.62C393.335,122.792 393,121.607 393,121.607Z" style="fill:rgb(77,77,77);"/>
                </g>
                <g transform="matrix(0.307692,0,0,0.0995648,204,80.0907)">
                    <path d="M395,183.878L395,212" style="fill:none;"/>
                    <path d="M393,183.878L393,181.869L397,181.869L397,183.878C397,183.878 396.658,186.166 396.338,189.502C396.271,190.212 396.214,190.962 396.172,191.752C396.115,192.827 396.062,193.963 396.066,195.127C396.074,197.36 396.213,199.685 396.328,201.876C396.618,207.392 397,212 397,212L397,214.009L393,214.009L393,212C393,212 393.382,207.392 393.672,201.876C393.787,199.685 393.926,197.36 393.934,195.127C393.938,193.963 393.885,192.827 393.828,191.752C393.786,190.962 393.729,190.212 393.662,189.502C393.342,186.166 393,183.878 393,183.878Z" style="fill:rgb(77,77,77);"/>
                </g>
                <g transform="matrix(0.307692,0,0,0.1,196.615,85.9651)">
                    <path d="M395,134L423,134" style="fill:none;"/>
                    <path d="M395,136C393.896,136 393,135.104 393,134C393,132.896 393.896,132 395,132C395,132 397.278,132.342 400.6,132.662C401.306,132.729 402.054,132.786 402.84,132.828C403.911,132.885 405.041,132.938 406.2,132.934C408.424,132.926 410.739,132.787 412.92,132.672C418.412,132.382 423,132 423,132C424.104,132 425,132.896 425,134C425,135.104 424.104,136 423,136C423,136 418.412,135.618 412.92,135.328C410.739,135.213 408.424,135.074 406.2,135.066C405.041,135.062 403.911,135.115 402.84,135.172C402.054,135.214 401.306,135.271 400.6,135.338C397.278,135.658 395,136 395,136Z" style="fill:rgb(77,77,77);"/>
                </g>
                <g transform="matrix(0.307692,0,0,0.0995648,197.846,80.0907)">
                    <path d="M395,121.607L395,136.672" style="fill:none;"/>
                    <path d="M393,121.607L393,119.598L397,119.598L397,121.607C397,121.607 396.665,122.792 396.338,124.62C396.27,125.001 396.214,125.398 396.172,125.825C396.115,126.4 396.062,127.008 396.066,127.633C396.074,128.834 396.213,130.075 396.328,131.249C396.62,134.226 397,136.672 397,136.672L397,138.681L393,138.681L393,136.672C393,136.672 393.38,134.226 393.672,131.249C393.787,130.075 393.926,128.834 393.934,127.633C393.938,127.008 393.885,126.4 393.828,125.825C393.786,125.398 393.73,125.001 393.662,124.62C393.335,122.792 393,121.607 393,121.607Z" style="fill:rgb(77,77,77);"/>
                </g>
                <g transform="matrix(0.307692,0,0,0.0995648,197.846,80.0907)">
                    <path d="M395,183.878L395,212" style="fill:none;"/>
                    <path d="M393,183.878L393,181.869L397,181.869L397,183.878C397,183.878 396.658,186.166 396.338,189.502C396.271,190.212 396.214,190.962 396.172,191.752C396.115,192.827 396.062,193.963 396.066,195.127C396.074,197.36 396.213,199.685 396.328,201.876C396.618,207.392 397,212 397,212L397,214.009L393,214.009L393,212C393,212 393.382,207.392 393.672,201.876C393.787,199.685 393.926,197.36 393.934,195.127C393.938,193.963 393.885,192.827 393.828,191.752C393.786,190.962 393.729,190.212 393.662,189.502C393.342,186.166 393,183.878 393,183.878Z" style="fill:rgb(77,77,77);"/>
                </g>
                <g transform="matrix(0.307692,0,0,0.1,196.615,79.2984)">
                    <path d="M395,134L423,134" style="fill:none;"/>
                    <path d="M395,136C393.896,136 393,135.104 393,134C393,132.896 393.896,132 395,132C395,132 397.278,132.342 400.6,132.662C401.306,132.729 402.054,132.786 402.84,132.828C403.911,132.885 405.041,132.938 406.2,132.934C408.424,132.926 410.739,132.787 412.92,132.672C418.412,132.382 423,132 423,132C424.104,132 425,132.896 425,134C425,135.104 424.104,136 423,136C423,136 418.412,135.618 412.92,135.328C410.739,135.213 408.424,135.074 406.2,135.066C405.041,135.062 403.911,135.115 402.84,135.172C402.054,135.214 401.306,135.271 400.6,135.338C397.278,135.658 395,136 395,136Z" style="fill:rgb(77,77,77);"/>
                </g>
                <g transform="matrix(-0.307692,0,0,0.1,448.308,87.2984)">
                    <path d="M395,134L423,134" style="fill:none;"/>
                    <path d="M395,132C393.896,132 393,132.896 393,134C393,135.104 393.896,136 395,136C395,136 397.278,135.658 400.6,135.338C401.306,135.271 402.054,135.214 402.84,135.172C403.911,135.115 405.041,135.062 406.2,135.066C408.424,135.074 410.739,135.213 412.92,135.328C418.412,135.618 423,136 423,136C424.104,136 425,135.104 425,134C425,132.896 424.104,132 423,132C423,132 418.412,132.382 412.92,132.672C410.739,132.787 408.424,132.926 406.2,132.934C405.041,132.938 403.911,132.885 402.84,132.828C402.054,132.786 401.306,132.729 400.6,132.662C397.278,132.342 395,132 395,132Z" style="fill:rgb(77,77,77);"/>
                </g>
            </g>
        </g>
    </g>
</svg>
