<?xml version="1.0" encoding="UTF-8" standalone="no"?>
<!DOCTYPE svg PUBLIC "-//W3C//DTD SVG 1.1//EN" "http://www.w3.org/Graphics/SVG/1.1/DTD/svg11.dtd">
<svg width="100%" height="100%" viewBox="0 0 80 80" version="1.1" xmlns="http://www.w3.org/2000/svg" xmlns:xlink="http://www.w3.org/1999/xlink" xml:space="preserve" xmlns:serif="http://www.serif.com/" style="fill-rule:evenodd;clip-rule:evenodd;stroke-linejoin:round;stroke-miterlimit:2;">
    <g transform="matrix(1,0,0,1,-1008,-1227)">
        <g transform="matrix(3.25,0,0,10,0,0)">
            <rect id="Plan-de-travail1" serif:id="Plan de travail1" x="0" y="0" width="800" height="400" style="fill:none;"/>
            <g id="Plan-de-travail11" serif:id="Plan de travail1">
                <g transform="matrix(0.307692,0,0,0.1,395.385,178.6)">
                    <path d="M-196,-478L-278,-478L-278,-560L-196,-560L-196,-478ZM-197,-559L-277,-559L-277,-479L-197,-479L-197,-559Z" style="fill:rgb(255,17,0);"/>
                </g>
                <g transform="matrix(-1,0,0,1,644.924,20)">
                    <g transform="matrix(0.307692,9.24446e-33,1.84889e-32,0.1,-0.00125969,50)">
                        <rect x="1008" y="526.969" width="80" height="80.031" style="fill:rgb(221,221,221);"/>
                    </g>
                    <g transform="matrix(-0.307692,-1.22465e-17,3.76814e-17,-0.1,644.923,163.411)">
                        <rect x="1028" y="526.969" width="40" height="80.031" style="fill:rgb(168,158,150);"/>
                    </g>
                    <g transform="matrix(-0.307692,-1.22465e-17,3.76814e-17,-0.1,644.923,163.411)">
                        <path d="M1068,526.969C1068,567 988,594 988.004,607C988.008,620.333 948.005,620.333 948.004,607C948,567 1028,540 1028,526.969C1028.01,513.635 1068.01,513.635 1068,526.969Z" style="fill:rgb(168,158,150);"/>
                    </g>
                    <g transform="matrix(1,3.08149e-32,2.46519e-31,1,258.46,79.9984)">
                        <g transform="matrix(0.307692,0,0,0.0995648,-60.6154,10.0938)">
                            <path d="M395,121.607L395,212" style="fill:none;"/>
                            <path d="M397,121.607L397,119.598L393,119.598L393,121.607C393,121.607 393.344,129.05 393.662,139.685C393.729,141.964 393.787,144.387 393.828,146.917C393.885,150.374 393.938,154.026 393.934,157.764C393.926,164.934 393.787,172.418 393.672,179.458C393.382,197.139 393,212 393,212L393,214.009L397,214.009L397,212C397,212 396.618,197.139 396.328,179.458C396.213,172.418 396.074,164.934 396.066,157.764C396.062,154.026 396.115,150.374 396.172,146.917C396.213,144.388 396.271,141.964 396.338,139.685C396.656,129.05 397,121.607 397,121.607Z" style="fill:rgb(77,77,77);"/>
                        </g>
                        <g transform="matrix(0.307692,0,0,0.0995648,-54.4615,10.0938)">
                            <path d="M395,121.607L395,212" style="fill:none;"/>
                            <path d="M397,121.607L397,119.598L393,119.598L393,121.607C393,121.607 393.344,129.05 393.662,139.685C393.729,141.964 393.787,144.387 393.828,146.917C393.885,150.374 393.938,154.026 393.934,157.764C393.926,164.934 393.787,172.418 393.672,179.458C393.382,197.139 393,212 393,212L393,214.009L397,214.009L397,212C397,212 396.618,197.139 396.328,179.458C396.213,172.418 396.074,164.934 396.066,157.764C396.062,154.026 396.115,150.374 396.172,146.917C396.213,144.388 396.271,141.964 396.338,139.685C396.656,129.05 397,121.607 397,121.607Z" style="fill:rgb(77,77,77);"/>
                        </g>
                        <g transform="matrix(0.307692,0,0,0.1,-61.8462,9.30156)">
                            <path d="M395,134L423,134" style="fill:none;"/>
                            <path d="M395,132C393.896,132 393,132.896 393,134C393,135.104 393.896,136 395,136C395,136 397.278,135.658 400.6,135.338C401.306,135.271 402.054,135.214 402.84,135.172C403.911,135.115 405.041,135.062 406.2,135.066C408.424,135.074 410.739,135.213 412.92,135.328C418.412,135.618 423,136 423,136C424.104,136 425,135.104 425,134C425,132.896 424.104,132 423,132C423,132 418.412,132.382 412.92,132.672C410.739,132.787 408.424,132.926 406.2,132.934C405.041,132.938 403.911,132.885 402.84,132.828C402.054,132.786 401.306,132.729 400.6,132.662C397.278,132.342 395,132 395,132Z" style="fill:rgb(77,77,77);"/>
                        </g>
                        <g transform="matrix(0.307692,0,0,0.1,-61.8462,10.6349)">
                            <path d="M395,134L423,134" style="fill:none;"/>
                            <path d="M395,132C393.896,132 393,132.896 393,134C393,135.104 393.896,136 395,136C395,136 397.278,135.658 400.6,135.338C401.306,135.271 402.054,135.214 402.84,135.172C403.911,135.115 405.041,135.062 406.2,135.066C408.424,135.074 410.739,135.213 412.92,135.328C418.412,135.618 423,136 423,136C424.104,136 425,135.104 425,134C425,132.896 424.104,132 423,132C423,132 418.412,132.382 412.92,132.672C410.739,132.787 408.424,132.926 406.2,132.934C405.041,132.938 403.911,132.885 402.84,132.828C402.054,132.786 401.306,132.729 400.6,132.662C397.278,132.342 395,132 395,132Z" style="fill:rgb(77,77,77);"/>
                        </g>
                        <g transform="matrix(-0.307692,0,0,0.1,189.846,11.9682)">
                            <path d="M395,134L423,134" style="fill:none;"/>
                            <path d="M395,136C393.896,136 393,135.104 393,134C393,132.896 393.896,132 395,132C395,132 397.278,132.342 400.6,132.662C401.306,132.729 402.054,132.786 402.84,132.828C403.911,132.885 405.041,132.938 406.2,132.934C408.424,132.926 410.739,132.787 412.92,132.672C418.412,132.382 423,132 423,132C424.104,132 425,132.896 425,134C425,135.104 424.104,136 423,136C423,136 418.412,135.618 412.92,135.328C410.739,135.213 408.424,135.074 406.2,135.066C405.041,135.062 403.911,135.115 402.84,135.172C402.054,135.214 401.306,135.271 400.6,135.338C397.278,135.658 395,136 395,136Z" style="fill:rgb(77,77,77);"/>
                        </g>
                        <g transform="matrix(0.307692,0,0,0.1,-61.8462,13.3016)">
                            <path d="M395,134L421,134" style="fill:none;"/>
                            <path d="M395,132C393.896,132 393,132.896 393,134C393,135.104 393.896,136 395,136C395,136 397.211,135.548 400.46,135.123C400.984,135.055 401.526,134.978 402.098,134.958C402.329,134.95 402.564,134.956 402.8,134.98C403.99,135.099 405.161,135.482 406.44,135.599C406.902,135.642 407.371,135.627 407.838,135.62C409.756,135.592 411.668,135.39 413.429,135.368C414.033,135.361 414.618,135.369 415.176,135.403C418.59,135.612 421,136 421,136C422.104,136 423,135.104 423,134C423,132.896 422.104,132 421,132C421,132 418.59,132.388 415.176,132.597C414.618,132.631 414.033,132.639 413.429,132.632C411.668,132.61 409.756,132.408 407.838,132.38C407.371,132.373 406.902,132.358 406.44,132.401C405.161,132.518 403.99,132.901 402.8,133.02C402.564,133.044 402.329,133.05 402.098,133.042C401.526,133.022 400.984,132.945 400.46,132.877C397.211,132.452 395,132 395,132Z" style="fill:rgb(77,77,77);"/>
                        </g>
                        <g transform="matrix(-0.307692,0,0,0.1,189.846,14.6349)">
                            <path d="M404,134L423,134" style="fill:none;"/>
                            <path d="M404,136C402.896,136 402,135.104 402,134C402,132.896 402.896,132 404,132C404,132 405.581,132.446 407.99,132.877C408.373,132.945 408.765,133.022 409.187,133.042C409.356,133.05 409.528,133.044 409.7,133.02C410.587,132.899 411.406,132.52 412.36,132.401C412.697,132.358 413.04,132.373 413.381,132.38C414.785,132.408 416.178,132.61 417.467,132.632C417.909,132.639 418.337,132.631 418.744,132.597C421.257,132.387 423,132 423,132C424.104,132 425,132.896 425,134C425,135.104 424.104,136 423,136C423,136 421.257,135.613 418.744,135.403C418.337,135.369 417.909,135.361 417.467,135.368C416.178,135.39 414.785,135.592 413.381,135.62C413.04,135.627 412.697,135.642 412.36,135.599C411.406,135.48 410.587,135.101 409.7,134.98C409.528,134.956 409.356,134.95 409.187,134.958C408.765,134.978 408.373,135.055 407.99,135.123C405.581,135.554 404,136 404,136Z" style="fill:rgb(77,77,77);"/>
                        </g>
                        <g transform="matrix(0.307692,0,0,0.1,-61.8462,15.9682)">
                            <path d="M395,134L433,134" style="fill:none;"/>
                            <path d="M395,132C393.896,132 393,132.896 393,134C393,135.104 393.896,136 395,136C395,136 398.111,135.657 402.6,135.338C403.558,135.271 404.575,135.214 405.64,135.172C407.093,135.115 408.628,135.062 410.2,135.066C413.216,135.074 416.36,135.213 419.32,135.328C426.763,135.618 433,136 433,136C434.104,136 435,135.104 435,134C435,132.896 434.104,132 433,132C433,132 426.763,132.382 419.32,132.672C416.36,132.787 413.216,132.926 410.2,132.934C408.628,132.938 407.093,132.885 405.64,132.828C404.575,132.786 403.558,132.729 402.6,132.662C398.111,132.343 395,132 395,132Z" style="fill:rgb(77,77,77);"/>
                        </g>
                        <g transform="matrix(-0.307692,0,0,0.1,189.846,17.3016)">
                            <path d="M395,134L423,134" style="fill:none;"/>
                            <path d="M395,136C393.896,136 393,135.104 393,134C393,132.896 393.896,132 395,132C395,132 397.278,132.342 400.6,132.662C401.306,132.729 402.054,132.786 402.84,132.828C403.911,132.885 405.041,132.938 406.2,132.934C408.424,132.926 410.739,132.787 412.92,132.672C418.412,132.382 423,132 423,132C424.104,132 425,132.896 425,134C425,135.104 424.104,136 423,136C423,136 418.412,135.618 412.92,135.328C410.739,135.213 408.424,135.074 406.2,135.066C405.041,135.062 403.911,135.115 402.84,135.172C402.054,135.214 401.306,135.271 400.6,135.338C397.278,135.658 395,136 395,136Z" style="fill:rgb(77,77,77);"/>
                        </g>
                        <g transform="matrix(0.307692,0,0,0.0995648,-48.3077,10.0923)">
                            <path d="M437,126.628L437,124.62L433,124.62L433,126.628C433.232,135.864 425.241,142.576 414.606,149.035C412.402,150.374 410.072,151.679 407.667,152.979C404.795,154.531 401.816,156.078 398.792,157.631C388.747,162.789 378.3,168.194 369.978,175.046C360.123,183.159 353.22,193.238 353,206.978L353,208.987L357,208.987L357,206.978C356.8,194.356 362.963,184.931 371.816,177.238C379.813,170.288 389.947,164.694 399.776,159.545C402.794,157.963 405.793,156.44 408.692,154.926C411.143,153.646 413.523,152.373 415.799,151.104C427.937,144.334 436.741,136.946 437,126.628Z" style="fill:rgb(77,77,77);"/>
                        </g>
                        <g transform="matrix(0.307692,0,0,0.0995648,-42.1538,10.0923)">
                            <path d="M437,126.628L437,124.62L433,124.62L433,126.629C433.184,132.888 431.922,138.385 429.509,143.257C426.956,148.413 423.198,152.896 418.699,156.855C414.473,160.576 409.603,163.849 404.478,166.821C392.051,174.027 378.182,179.563 368.12,186.022C359.113,191.804 353.141,198.377 353,206.978L353,208.987L357,208.987L357,206.978C356.878,199.534 362.218,193.91 369.867,188.683C379.692,181.971 393.273,175.987 405.573,168.707C410.79,165.619 415.784,162.313 420.19,158.601C425.035,154.519 429.161,149.953 432.116,144.638C435.017,139.419 436.8,133.503 437,126.628Z" style="fill:rgb(77,77,77);"/>
                        </g>
                        <g transform="matrix(0.307692,0,0,0.1,-49.5385,9.3)">
                            <path d="M385.004,171.129L399,195.129" style="fill:none;"/>
                            <path d="M386.732,170.121C386.176,169.168 384.95,168.845 383.997,169.401C383.043,169.957 382.72,171.183 383.276,172.136C383.276,172.136 384.71,173.916 386.647,176.603C387.059,177.175 387.482,177.786 387.911,178.439C388.495,179.328 389.106,180.27 389.682,181.266C390.786,183.177 391.823,185.231 392.814,187.158C395.309,192.012 397.272,196.136 397.272,196.136C397.828,197.09 399.054,197.413 400.008,196.857C400.961,196.301 401.284,195.075 400.728,194.121C400.728,194.121 398.105,190.381 395.109,185.82C393.919,184.008 392.642,182.094 391.523,180.192C390.94,179.201 390.422,178.205 389.935,177.259C389.578,176.563 389.254,175.894 388.96,175.255C387.575,172.246 386.732,170.121 386.732,170.121Z" style="fill:rgb(77,77,77);"/>
                        </g>
                        <g transform="matrix(-0.287729,-0.0354335,-0.109026,0.0935119,205.521,27.3284)">
                            <path d="M384.117,151.679L405.718,134.182" style="fill:none;"/>
                            <path d="M385.376,153.233C384.518,153.928 383.258,153.796 382.563,152.938C381.868,152.08 382.001,150.82 382.858,150.125C382.858,150.125 384.831,148.967 387.595,147.14C388.183,146.751 388.795,146.328 389.428,145.869C390.289,145.244 391.195,144.58 392.087,143.852C393.797,142.456 395.496,140.901 397.106,139.449C401.16,135.792 404.46,132.628 404.46,132.628C405.317,131.933 406.578,132.066 407.273,132.924C407.967,133.781 407.835,135.042 406.977,135.737C406.977,135.737 403.197,138.307 398.778,141.513C397.023,142.787 395.15,144.126 393.429,145.509C392.532,146.23 391.693,146.978 390.903,147.691C390.323,148.214 389.782,148.726 389.28,149.22C386.918,151.544 385.376,153.233 385.376,153.233Z" style="fill:rgb(77,77,77);"/>
                        </g>
                    </g>
                    <g transform="matrix(-0.307692,-1.22465e-17,3.76814e-17,-0.1,644.923,163.411)">
                        <rect x="1028" y="526.969" width="40" height="80.031" style="fill:rgb(168,158,150);"/>
                    </g>
                    <g transform="matrix(1,3.08149e-32,2.46519e-31,1,258.46,79.9984)">
                        <g transform="matrix(0.307692,0,0,0.0995648,-60.6154,10.0938)">
                            <path d="M395,121.607L395,212" style="fill:none;"/>
                            <path d="M397,121.607L397,119.598L393,119.598L393,121.607C393,121.607 393.344,129.05 393.662,139.685C393.729,141.964 393.787,144.387 393.828,146.917C393.885,150.374 393.938,154.026 393.934,157.764C393.926,164.934 393.787,172.418 393.672,179.458C393.382,197.139 393,212 393,212L393,214.009L397,214.009L397,212C397,212 396.618,197.139 396.328,179.458C396.213,172.418 396.074,164.934 396.066,157.764C396.062,154.026 396.115,150.374 396.172,146.917C396.213,144.388 396.271,141.964 396.338,139.685C396.656,129.05 397,121.607 397,121.607Z" style="fill:rgb(77,77,77);"/>
                        </g>
                        <g transform="matrix(0.307692,0,0,0.0995648,-54.4615,10.0938)">
                            <path d="M395,121.607L395,212" style="fill:none;"/>
                            <path d="M397,121.607L397,119.598L393,119.598L393,121.607C393,121.607 393.344,129.05 393.662,139.685C393.729,141.964 393.787,144.387 393.828,146.917C393.885,150.374 393.938,154.026 393.934,157.764C393.926,164.934 393.787,172.418 393.672,179.458C393.382,197.139 393,212 393,212L393,214.009L397,214.009L397,212C397,212 396.618,197.139 396.328,179.458C396.213,172.418 396.074,164.934 396.066,157.764C396.062,154.026 396.115,150.374 396.172,146.917C396.213,144.388 396.271,141.964 396.338,139.685C396.656,129.05 397,121.607 397,121.607Z" style="fill:rgb(77,77,77);"/>
                        </g>
                        <g transform="matrix(0.307692,0,0,0.1,-61.8462,9.30156)">
                            <path d="M395,134L423,134" style="fill:none;"/>
                            <path d="M395,132C393.896,132 393,132.896 393,134C393,135.104 393.896,136 395,136C395,136 397.278,135.658 400.6,135.338C401.306,135.271 402.054,135.214 402.84,135.172C403.911,135.115 405.041,135.062 406.2,135.066C408.424,135.074 410.739,135.213 412.92,135.328C418.412,135.618 423,136 423,136C424.104,136 425,135.104 425,134C425,132.896 424.104,132 423,132C423,132 418.412,132.382 412.92,132.672C410.739,132.787 408.424,132.926 406.2,132.934C405.041,132.938 403.911,132.885 402.84,132.828C402.054,132.786 401.306,132.729 400.6,132.662C397.278,132.342 395,132 395,132Z" style="fill:rgb(77,77,77);"/>
                        </g>
                        <g transform="matrix(0.307692,0,0,0.1,-61.8462,10.6349)">
                            <path d="M395,134L423,134" style="fill:none;"/>
                            <path d="M395,132C393.896,132 393,132.896 393,134C393,135.104 393.896,136 395,136C395,136 397.278,135.658 400.6,135.338C401.306,135.271 402.054,135.214 402.84,135.172C403.911,135.115 405.041,135.062 406.2,135.066C408.424,135.074 410.739,135.213 412.92,135.328C418.412,135.618 423,136 423,136C424.104,136 425,135.104 425,134C425,132.896 424.104,132 423,132C423,132 418.412,132.382 412.92,132.672C410.739,132.787 408.424,132.926 406.2,132.934C405.041,132.938 403.911,132.885 402.84,132.828C402.054,132.786 401.306,132.729 400.6,132.662C397.278,132.342 395,132 395,132Z" style="fill:rgb(77,77,77);"/>
                        </g>
                        <g transform="matrix(-0.307692,0,0,0.1,189.846,11.9682)">
                            <path d="M395,134L423,134" style="fill:none;"/>
                            <path d="M395,136C393.896,136 393,135.104 393,134C393,132.896 393.896,132 395,132C395,132 397.278,132.342 400.6,132.662C401.306,132.729 402.054,132.786 402.84,132.828C403.911,132.885 405.041,132.938 406.2,132.934C408.424,132.926 410.739,132.787 412.92,132.672C418.412,132.382 423,132 423,132C424.104,132 425,132.896 425,134C425,135.104 424.104,136 423,136C423,136 418.412,135.618 412.92,135.328C410.739,135.213 408.424,135.074 406.2,135.066C405.041,135.062 403.911,135.115 402.84,135.172C402.054,135.214 401.306,135.271 400.6,135.338C397.278,135.658 395,136 395,136Z" style="fill:rgb(77,77,77);"/>
                        </g>
                        <g transform="matrix(0.307692,0,0,0.1,-61.8462,13.3016)">
                            <path d="M395,134L421,134" style="fill:none;"/>
                            <path d="M395,132C393.896,132 393,132.896 393,134C393,135.104 393.896,136 395,136C395,136 397.211,135.548 400.46,135.123C400.984,135.055 401.526,134.978 402.098,134.958C402.329,134.95 402.564,134.956 402.8,134.98C403.99,135.099 405.161,135.482 406.44,135.599C406.902,135.642 407.371,135.627 407.838,135.62C409.756,135.592 411.668,135.39 413.429,135.368C414.033,135.361 414.618,135.369 415.176,135.403C418.59,135.612 421,136 421,136C422.104,136 423,135.104 423,134C423,132.896 422.104,132 421,132C421,132 418.59,132.388 415.176,132.597C414.618,132.631 414.033,132.639 413.429,132.632C411.668,132.61 409.756,132.408 407.838,132.38C407.371,132.373 406.902,132.358 406.44,132.401C405.161,132.518 403.99,132.901 402.8,133.02C402.564,133.044 402.329,133.05 402.098,133.042C401.526,133.022 400.984,132.945 400.46,132.877C397.211,132.452 395,132 395,132Z" style="fill:rgb(77,77,77);"/>
                        </g>
                        <g transform="matrix(-0.307692,0,0,0.1,189.846,14.6349)">
                            <path d="M404,134L423,134" style="fill:none;"/>
                            <path d="M404,136C402.896,136 402,135.104 402,134C402,132.896 402.896,132 404,132C404,132 405.581,132.446 407.99,132.877C408.373,132.945 408.765,133.022 409.187,133.042C409.356,133.05 409.528,133.044 409.7,133.02C410.587,132.899 411.406,132.52 412.36,132.401C412.697,132.358 413.04,132.373 413.381,132.38C414.785,132.408 416.178,132.61 417.467,132.632C417.909,132.639 418.337,132.631 418.744,132.597C421.257,132.387 423,132 423,132C424.104,132 425,132.896 425,134C425,135.104 424.104,136 423,136C423,136 421.257,135.613 418.744,135.403C418.337,135.369 417.909,135.361 417.467,135.368C416.178,135.39 414.785,135.592 413.381,135.62C413.04,135.627 412.697,135.642 412.36,135.599C411.406,135.48 410.587,135.101 409.7,134.98C409.528,134.956 409.356,134.95 409.187,134.958C408.765,134.978 408.373,135.055 407.99,135.123C405.581,135.554 404,136 404,136Z" style="fill:rgb(77,77,77);"/>
                        </g>
                        <g transform="matrix(0.307692,0,0,0.1,-61.8462,15.9682)">
                            <path d="M395,134L433,134" style="fill:none;"/>
                            <path d="M395,132C393.896,132 393,132.896 393,134C393,135.104 393.896,136 395,136C395,136 398.111,135.657 402.6,135.338C403.558,135.271 404.575,135.214 405.64,135.172C407.093,135.115 408.628,135.062 410.2,135.066C413.216,135.074 416.36,135.213 419.32,135.328C426.763,135.618 433,136 433,136C434.104,136 435,135.104 435,134C435,132.896 434.104,132 433,132C433,132 426.763,132.382 419.32,132.672C416.36,132.787 413.216,132.926 410.2,132.934C408.628,132.938 407.093,132.885 405.64,132.828C404.575,132.786 403.558,132.729 402.6,132.662C398.111,132.343 395,132 395,132Z" style="fill:rgb(77,77,77);"/>
                        </g>
                        <g transform="matrix(-0.307692,0,0,0.1,189.846,17.3016)">
                            <path d="M395,134L423,134" style="fill:none;"/>
                            <path d="M395,136C393.896,136 393,135.104 393,134C393,132.896 393.896,132 395,132C395,132 397.278,132.342 400.6,132.662C401.306,132.729 402.054,132.786 402.84,132.828C403.911,132.885 405.041,132.938 406.2,132.934C408.424,132.926 410.739,132.787 412.92,132.672C418.412,132.382 423,132 423,132C424.104,132 425,132.896 425,134C425,135.104 424.104,136 423,136C423,136 418.412,135.618 412.92,135.328C410.739,135.213 408.424,135.074 406.2,135.066C405.041,135.062 403.911,135.115 402.84,135.172C402.054,135.214 401.306,135.271 400.6,135.338C397.278,135.658 395,136 395,136Z" style="fill:rgb(77,77,77);"/>
                        </g>
                        <g transform="matrix(0.307692,0,0,0.0995648,-48.3077,10.0923)">
                            <path d="M437,126.628L437,124.62L433,124.62L433,126.628C433.232,135.864 425.241,142.576 414.606,149.035C412.402,150.374 410.072,151.679 407.667,152.979C404.795,154.531 401.816,156.078 398.792,157.631C388.747,162.789 378.3,168.194 369.978,175.046C360.123,183.159 353.22,193.238 353,206.978L353,208.987L357,208.987L357,206.978C356.8,194.356 362.963,184.931 371.816,177.238C379.813,170.288 389.947,164.694 399.776,159.545C402.794,157.963 405.793,156.44 408.692,154.926C411.143,153.646 413.523,152.373 415.799,151.104C427.937,144.334 436.741,136.946 437,126.628Z" style="fill:rgb(77,77,77);"/>
                        </g>
                        <g transform="matrix(0.307692,0,0,0.0995648,-42.1538,10.0923)">
                            <path d="M437,126.628L437,124.62L433,124.62L433,126.629C433.184,132.888 431.922,138.385 429.509,143.257C426.956,148.413 423.198,152.896 418.699,156.855C414.473,160.576 409.603,163.849 404.478,166.821C392.051,174.027 378.182,179.563 368.12,186.022C359.113,191.804 353.141,198.377 353,206.978L353,208.987L357,208.987L357,206.978C356.878,199.534 362.218,193.91 369.867,188.683C379.692,181.971 393.273,175.987 405.573,168.707C410.79,165.619 415.784,162.313 420.19,158.601C425.035,154.519 429.161,149.953 432.116,144.638C435.017,139.419 436.8,133.503 437,126.628Z" style="fill:rgb(77,77,77);"/>
                        </g>
                        <g transform="matrix(0.307692,0,0,0.1,-49.5385,9.3)">
                            <path d="M385.004,171.129L399,195.129" style="fill:none;"/>
                            <path d="M386.732,170.121C386.176,169.168 384.95,168.845 383.997,169.401C383.043,169.957 382.72,171.183 383.276,172.136C383.276,172.136 384.71,173.916 386.647,176.603C387.059,177.175 387.482,177.786 387.911,178.439C388.495,179.328 389.106,180.27 389.682,181.266C390.786,183.177 391.823,185.231 392.814,187.158C395.309,192.012 397.272,196.136 397.272,196.136C397.828,197.09 399.054,197.413 400.008,196.857C400.961,196.301 401.284,195.075 400.728,194.121C400.728,194.121 398.105,190.381 395.109,185.82C393.919,184.008 392.642,182.094 391.523,180.192C390.94,179.201 390.422,178.205 389.935,177.259C389.578,176.563 389.254,175.894 388.96,175.255C387.575,172.246 386.732,170.121 386.732,170.121Z" style="fill:rgb(77,77,77);"/>
                        </g>
                        <g transform="matrix(-0.287729,-0.0354335,-0.109026,0.0935119,205.521,27.3284)">
                            <path d="M384.117,151.679L405.718,134.182" style="fill:none;"/>
                            <path d="M385.376,153.233C384.518,153.928 383.258,153.796 382.563,152.938C381.868,152.08 382.001,150.82 382.858,150.125C382.858,150.125 384.831,148.967 387.595,147.14C388.183,146.751 388.795,146.328 389.428,145.869C390.289,145.244 391.195,144.58 392.087,143.852C393.797,142.456 395.496,140.901 397.106,139.449C401.16,135.792 404.46,132.628 404.46,132.628C405.317,131.933 406.578,132.066 407.273,132.924C407.967,133.781 407.835,135.042 406.977,135.737C406.977,135.737 403.197,138.307 398.778,141.513C397.023,142.787 395.15,144.126 393.429,145.509C392.532,146.23 391.693,146.978 390.903,147.691C390.323,148.214 389.782,148.726 389.28,149.22C386.918,151.544 385.376,153.233 385.376,153.233Z" style="fill:rgb(77,77,77);"/>
                        </g>
                    </g>
                </g>
            </g>
        </g>
    </g>
</svg>
