<?xml version="1.0" encoding="UTF-8" standalone="no"?>
<!DOCTYPE svg PUBLIC "-//W3C//DTD SVG 1.1//EN" "http://www.w3.org/Graphics/SVG/1.1/DTD/svg11.dtd">
<svg width="100%" height="100%" viewBox="0 0 80 80" version="1.1" xmlns="http://www.w3.org/2000/svg" xmlns:xlink="http://www.w3.org/1999/xlink" xml:space="preserve" xmlns:serif="http://www.serif.com/" style="fill-rule:evenodd;clip-rule:evenodd;stroke-linecap:round;stroke-linejoin:round;stroke-miterlimit:10;">
    <g transform="matrix(1,0,0,1,-1008,-427)">
        <g transform="matrix(3.25,0,0,10,0,0)">
            <rect id="Plan-de-travail1" serif:id="Plan de travail1" x="0" y="0" width="800" height="400" style="fill:none;"/>
            <g id="Plan-de-travail11" serif:id="Plan de travail1">
                <g transform="matrix(0.307692,0,0,0.1,0,0)">
                    <path d="M1024.9,447.83C1024.6,447.804 1024.3,447.787 1024,447.78C1019.76,447.68 1015.88,449.327 1013.05,452.054C1010.19,454.817 1008.43,458.705 1008.37,463C1008.38,467.312 1010.13,471.22 1012.97,474.034C1015.8,476.84 1019.7,478.563 1024,478.536C1024,478.536 1039.43,478.383 1052.8,478.371C1063,478.361 1072,478.446 1072,478.446C1076.28,478.495 1080.17,476.784 1083.01,474.012C1085.88,471.215 1087.66,467.32 1087.71,463C1087.77,459.018 1086.33,455.37 1083.94,452.561C1081.88,450.145 1079.1,448.369 1075.93,447.527L1075.95,447C1075.84,441.53 1073.56,436.612 1069.9,433.102C1066.29,429.645 1061.39,427.525 1056,427.636C1052.48,427.7 1049.2,428.692 1046.39,430.39C1043.78,431.967 1041.58,434.137 1039.97,436.722C1039.49,436.543 1039,436.395 1038.49,436.282C1037.69,436.104 1036.86,436.007 1036,436.016C1032.97,436.022 1030.25,437.275 1028.24,439.244C1026.23,441.226 1024.94,443.95 1024.88,447C1024.88,447.279 1024.88,447.556 1024.9,447.83ZM1071.88,448.903C1071.75,449.989 1072.51,450.976 1073.6,451.12C1076.57,451.476 1079.22,452.902 1081.13,455.019C1083.05,457.136 1084.24,459.921 1084.29,463C1084.33,466.413 1083,469.524 1080.79,471.787C1078.55,474.075 1075.45,475.514 1072,475.554C1072,475.554 1063,475.639 1052.8,475.629C1039.43,475.617 1024,475.464 1024,475.464C1020.57,475.443 1017.48,474.024 1015.24,471.765C1013,469.514 1011.62,466.42 1011.63,463C1011.58,459.563 1012.94,456.441 1015.15,454.147C1017.39,451.814 1020.51,450.302 1024,450.22L1026.06,450.351C1026.44,450.414 1026.83,450.282 1027.1,450C1027.37,449.717 1027.47,449.321 1027.39,448.942C1027.31,448.626 1027.25,448.304 1027.2,447.975C1027.16,447.655 1027.13,447.331 1027.12,447C1027.07,444.526 1028.01,442.249 1029.61,440.613C1031.23,438.967 1033.51,437.979 1036,437.984C1036.7,437.991 1037.38,438.082 1038.03,438.243C1038.7,438.411 1039.34,438.659 1039.95,438.967C1040.44,439.209 1041.03,439.028 1041.31,438.553C1042.83,436.007 1045,433.899 1047.59,432.453C1050.08,431.065 1052.95,430.309 1056,430.364C1060.56,430.458 1064.63,432.395 1067.56,435.442C1070.43,438.435 1072.14,442.527 1072.05,447L1071.88,448.903Z" style="fill:rgb(125,125,125);fill-opacity:0.5;"/>
                </g>
                <g transform="matrix(0.307692,0,0,0.1,395.385,98.6)">
                    <path d="M-196,-478L-278,-478L-278,-560L-196,-560L-196,-478ZM-197,-559L-277,-559L-277,-479L-197,-479L-197,-559Z" style="fill:rgb(255,17,0);"/>
                </g>
                <g transform="matrix(0.307692,0,0,0.1,0.00125969,5.71765e-15)">
                    <path d="M1088,426.969L1088,507L1008,507L1008,426.969L1088,426.969ZM1024.9,447.83C1024.6,447.804 1024.3,447.787 1024,447.78C1019.76,447.68 1015.88,449.327 1013.05,452.054C1010.19,454.817 1008.43,458.705 1008.37,463C1008.38,467.312 1010.13,471.22 1012.97,474.034C1015.8,476.84 1019.7,478.563 1024,478.536C1024,478.536 1039.43,478.383 1052.8,478.371C1063,478.361 1072,478.446 1072,478.446C1076.28,478.495 1080.17,476.784 1083.01,474.012C1085.88,471.215 1087.66,467.32 1087.71,463C1087.77,459.018 1086.33,455.37 1083.94,452.561C1081.88,450.145 1079.1,448.369 1075.93,447.527L1075.95,447C1075.84,441.53 1073.56,436.612 1069.9,433.102C1066.29,429.645 1061.39,427.525 1056,427.636C1052.48,427.7 1049.2,428.692 1046.39,430.39C1043.78,431.967 1041.58,434.137 1039.97,436.722C1039.49,436.543 1039,436.395 1038.49,436.282C1037.69,436.104 1036.86,436.007 1036,436.016C1032.97,436.022 1030.25,437.275 1028.24,439.244C1026.23,441.226 1024.94,443.95 1024.88,447C1024.88,447.279 1024.88,447.556 1024.9,447.83Z" style="fill:rgb(221,221,221);"/>
                </g>
                <g transform="matrix(1,0,0,1,-49.2308,0)">
                    <g>
                        <g transform="matrix(0.307692,0,0,0.1,246.154,41)">
                            <path d="M388,76.002C388,64.964 396.962,56.002 408,56.002C419.038,56.002 428,64.964 428,76.002L428,94.049L388,94.049L388,76.002Z" style="fill:rgb(111,111,111);"/>
                        </g>
                        <g transform="matrix(0.307692,0,0,0.1,0,0)">
                            <path d="M1187.78,504.049L1170.78,504.049L1170.79,484.018C1171.29,464.029 1187.67,447.955 1207.78,447.955C1227.88,447.955 1244.27,464.029 1244.77,484.018L1244.78,504.049L1227.78,504.049L1227.78,486.002C1227.78,474.964 1218.82,466.002 1207.78,466.002C1196.74,466.002 1187.78,474.964 1187.78,486.002L1187.78,504.049Z" style="fill:rgb(217,217,217);"/>
                            <clipPath id="_clip1">
                                <path d="M1187.78,504.049L1170.78,504.049L1170.79,484.018C1171.29,464.029 1187.67,447.955 1207.78,447.955C1227.88,447.955 1244.27,464.029 1244.77,484.018L1244.78,504.049L1227.78,504.049L1227.78,486.002C1227.78,474.964 1218.82,466.002 1207.78,466.002C1196.74,466.002 1187.78,474.964 1187.78,486.002L1187.78,504.049Z"/>
                            </clipPath>
                            <g clip-path="url(#_clip1)">
                                <g transform="matrix(1,0,0,1,800,402)">
                                    <path d="M434,94L440,94" style="fill:none;"/>
                                    <path d="M433.154,93.718C432.792,92.439 432.726,91.252 434.12,92.078C434.329,92.201 434.61,92.402 435.2,92.662C435.355,92.73 435.497,92.783 435.68,92.828C435.908,92.884 436.147,92.938 436.4,92.934C436.892,92.926 437.371,92.787 437.84,92.672C439.09,92.365 440,92 440,92C441.104,92 442,92.896 442,94C442,95.104 441.104,96 440,96C440,96 439.09,95.635 437.84,95.328C437.371,95.213 436.892,95.074 436.4,95.066C436.147,95.062 435.908,95.116 435.68,95.172C435.497,95.217 435.355,95.27 435.2,95.338C434.36,95.713 434,96 434,96C432.896,96 432,95.104 432,94C432,93.199 432.472,92.507 433.154,93.718Z" style="fill:rgb(77,77,77);"/>
                                </g>
                                <g transform="matrix(1,0,0,1,800,402)">
                                    <path d="M376,94L382,94" style="fill:none;"/>
                                    <path d="M375.154,93.718C374.792,92.439 374.726,91.252 376.12,92.078C376.329,92.201 376.61,92.402 377.2,92.662C377.355,92.73 377.497,92.783 377.68,92.828C377.908,92.884 378.147,92.938 378.4,92.934C378.892,92.926 379.371,92.787 379.84,92.672C381.09,92.365 382,92 382,92C383.104,92 384,92.896 384,94C384,95.104 383.104,96 382,96C382,96 381.09,95.635 379.84,95.328C379.371,95.213 378.892,95.074 378.4,95.066C378.147,95.062 377.908,95.116 377.68,95.172C377.497,95.217 377.355,95.27 377.2,95.338C376.36,95.713 376,96 376,96C374.896,96 374,95.104 374,94C374,93.199 374.472,92.507 375.154,93.718Z" style="fill:rgb(77,77,77);"/>
                                </g>
                            </g>
                            <path d="M1187.78,506.049L1170.78,505.82C1170.31,505.82 1169.86,505.633 1169.52,505.301C1169.19,504.968 1169.01,504.518 1169.01,504.048L1169.25,484.017C1169.25,484.004 1169.25,483.992 1169.25,483.979C1169.6,473.594 1174.07,464.271 1181.06,457.556C1188,450.896 1197.41,446.788 1207.78,446.848C1218.12,446.86 1227.48,451.011 1234.35,457.699C1241.25,464.408 1245.64,473.68 1245.93,483.988C1245.93,483.998 1245.93,484.007 1245.93,484.017L1246.04,504.048C1246.04,504.383 1245.91,504.704 1245.67,504.941C1245.43,505.178 1245.11,505.311 1244.78,505.311L1227.78,505.401C1227.03,505.401 1226.42,504.795 1226.42,504.049L1226.32,486.002C1226.29,480.898 1224.19,476.288 1220.82,472.962C1217.47,469.654 1212.85,467.628 1207.78,467.661C1202.73,467.695 1198.17,469.777 1194.88,473.11C1191.62,476.423 1189.61,480.984 1189.65,486.002L1189.78,504.049C1189.78,505.153 1188.88,506.049 1187.78,506.049ZM1185.79,502.075L1185.91,486.002C1185.95,479.981 1188.41,474.538 1192.39,470.615C1196.35,466.711 1201.79,464.302 1207.78,464.342C1213.74,464.382 1219.13,466.827 1223.02,470.763C1226.88,474.681 1229.27,480.067 1229.24,486.002L1229.14,502.704C1229.14,502.704 1243.52,502.779 1243.52,502.779C1243.52,502.779 1243.6,484.029 1243.6,484.019C1243.38,474.327 1239.32,465.559 1232.85,459.237C1226.38,452.918 1217.52,449.051 1207.78,449.062C1198.06,449.119 1189.25,453.036 1182.84,459.379C1176.46,465.692 1172.49,474.409 1172.33,484.024L1172.53,502.254L1185.79,502.075Z" style="fill:rgb(77,77,77);"/>
                        </g>
                        <g transform="matrix(0.205128,0,0,0.166667,123.897,-30.6333)">
                            <path d="M1220,455L1196,455C1196,455 1196,458.426 1196,460.552C1196,461.562 1197.43,462.485 1199.69,462.937C1203.21,463.643 1208,464.6 1208,464.6C1208,464.6 1212.79,463.643 1216.31,462.937C1218.57,462.485 1220,461.562 1220,460.552C1220,458.426 1220,455 1220,455Z" style="fill:rgb(217,217,217);"/>
                            <clipPath id="_clip2">
                                <path d="M1220,455L1196,455C1196,455 1196,458.426 1196,460.552C1196,461.562 1197.43,462.485 1199.69,462.937C1203.21,463.643 1208,464.6 1208,464.6C1208,464.6 1212.79,463.643 1216.31,462.937C1218.57,462.485 1220,461.562 1220,460.552C1220,458.426 1220,455 1220,455Z"/>
                            </clipPath>
                            <g clip-path="url(#_clip2)">
                                <g transform="matrix(1.5,0,0,0.6,-604,185)">
                                    <g transform="matrix(0.95,0,0,1,60.1043,0)">
                                        <g transform="matrix(6,0,0,6,1214.54,458.624)">
                                        </g>
                                        <text x="1202.09px" y="458.624px" style="font-family:'Orbitron-Bold', 'Orbitron';font-size:6px;fill:rgb(77,77,77);">xyz</text>
                                    </g>
                                </g>
                            </g>
                            <path d="M1220,455L1196,455C1196,455 1196,458.426 1196,460.552C1196,461.562 1197.43,462.485 1199.69,462.937C1203.21,463.643 1208,464.6 1208,464.6C1208,464.6 1212.79,463.643 1216.31,462.937C1218.57,462.485 1220,461.562 1220,460.552C1220,458.426 1220,455 1220,455Z" style="fill:none;stroke:rgb(77,77,77);stroke-width:1.58px;"/>
                        </g>
                    </g>
                    <g transform="matrix(1,0,0,1,246.154,34.1)">
                        <g transform="matrix(0.307692,0,0,0.0995648,0.923077,0.0922558)">
                            <path d="M395,144.707L395,171.825" style="fill:none;"/>
                            <path d="M395,144.707L397,171.825L397,173.834L393,173.834L393,171.825L395,144.707Z" style="fill:rgb(77,77,77);"/>
                        </g>
                        <g transform="matrix(0.307692,0,0,0.0995648,7.07692,0.0922558)">
                            <path d="M395,144.707L395,171.825" style="fill:none;"/>
                            <path d="M395,144.707L397,171.825L397,173.834L393,173.834L393,171.825L395,144.707Z" style="fill:rgb(77,77,77);"/>
                        </g>
                        <g transform="matrix(-0.307692,0,0,0.1,251.385,1.96667)">
                            <path d="M395,134L423,134" style="fill:none;"/>
                            <path d="M395,132.75C394.31,132.75 393.75,133.31 393.75,134C393.75,134.69 394.31,135.25 395,135.25C395,135.25 397.297,135.035 400.6,134.837C401.306,134.794 402.056,134.758 402.84,134.732C403.911,134.697 405.042,134.664 406.2,134.666C408.422,134.671 410.739,134.758 412.92,134.83C418.401,135.011 423,135.25 423,135.25C423.69,135.25 424.25,134.69 424.25,134C424.25,133.31 423.69,132.75 423,132.75C423,132.75 418.401,132.989 412.92,133.17C410.739,133.242 408.422,133.329 406.2,133.334C405.042,133.336 403.911,133.303 402.84,133.268C402.056,133.242 401.306,133.206 400.6,133.163C397.297,132.965 395,132.75 395,132.75Z" style="fill:rgb(77,77,77);"/>
                        </g>
                        <g transform="matrix(0.307692,0,0,0.1,-0.307692,3.3)">
                            <path d="M395,134L423,134" style="fill:none;"/>
                            <path d="M395,136C393.896,136 393,135.104 393,134C393,132.896 393.896,132 395,132C395,132 397.278,132.342 400.6,132.662C401.306,132.729 402.054,132.786 402.84,132.828C403.911,132.885 405.041,132.938 406.2,132.934C408.424,132.926 410.739,132.787 412.92,132.672C418.412,132.382 423,132 423,132C424.104,132 425,132.896 425,134C425,135.104 424.104,136 423,136C423,136 418.412,135.618 412.92,135.328C410.739,135.213 408.424,135.074 406.2,135.066C405.041,135.062 403.911,135.115 402.84,135.172C402.054,135.214 401.306,135.271 400.6,135.338C397.278,135.658 395,136 395,136Z" style="fill:rgb(77,77,77);"/>
                        </g>
                    </g>
                </g>
            </g>
        </g>
    </g>
</svg>
