<?xml version="1.0" encoding="UTF-8" standalone="no"?>
<!DOCTYPE svg PUBLIC "-//W3C//DTD SVG 1.1//EN" "http://www.w3.org/Graphics/SVG/1.1/DTD/svg11.dtd">
<svg width="100%" height="100%" viewBox="0 0 80 80" version="1.1" xmlns="http://www.w3.org/2000/svg" xmlns:xlink="http://www.w3.org/1999/xlink" xml:space="preserve" xmlns:serif="http://www.serif.com/" style="fill-rule:evenodd;clip-rule:evenodd;stroke-linecap:round;stroke-linejoin:round;stroke-miterlimit:10;">
    <g transform="matrix(1,0,0,1,-1000,-3310)">
        <g transform="matrix(1,0,0,1,900,3300)">
            <rect id="NWDWebHookSlack" x="0" y="0" width="800" height="400" style="fill:none;"/>
            <g id="NWDWebHookSlack1" serif:id="NWDWebHookSlack">
                <g transform="matrix(1,0,0,1,-1070,10)">
                    <g transform="matrix(1.00484,0,0,0.502419,-95.9552,-70.4155)">
                        <path d="M1299.7,219.713L1337.51,257.53L1299.7,295.347L1261.88,257.53L1299.7,219.713Z" style="fill:rgb(153,153,153);stroke:rgb(77,77,77);stroke-width:5.04px;"/>
                    </g>
                    <g transform="matrix(1,0,0,1,-90,-180)">
                        <path d="M1262.03,228.972C1262.03,228.972 1262,222.888 1262,220C1262,212.268 1268.27,206 1276,206C1276.77,206 1277.52,206.078 1278.25,206.198C1278.09,205.49 1278,204.756 1278,204C1278,198.477 1282.48,194 1288,194C1289.58,194 1291.08,194.379 1292.41,195.034C1295.52,189.64 1301.33,186 1308,186C1317.94,186 1326,194.059 1326,204C1326,204.725 1325.94,205.436 1325.86,206.138C1332.71,207.051 1338,212.901 1338,220C1338,222.879 1338.03,228.972 1338.03,228.972L1300.03,247.972L1262.03,228.972Z" style="fill:rgb(205,132,203);fill-rule:nonzero;stroke:rgb(147,39,143);stroke-width:4px;stroke-linecap:square;"/>
                    </g>
                </g>
                <g transform="matrix(1.73913,0,0,1.95122,-249.565,-109.007)">
                    <path d="M247.575,102.513L200.425,102.513L200.425,60.488L247.575,60.487L247.575,102.513ZM247,61L201,61L201,102L247,102L247,61Z" style="fill:rgb(249,63,63);"/>
                </g>
                <g transform="matrix(1,0,0,1,-7,15)">
                    <g transform="matrix(-1,0,0,1,1102.03,-3320)">
                        <path d="M944.014,3350L944.014,3336C944.014,3333.79 945.806,3332 948.014,3332C950.222,3332 952.014,3333.79 952.014,3336L952.014,3350C952.014,3352.21 950.222,3354 948.014,3354C945.806,3354 944.014,3352.21 944.014,3350Z" style="fill:rgb(217,217,217);stroke:rgb(77,77,77);stroke-width:4px;stroke-linecap:square;"/>
                    </g>
                    <g transform="matrix(-1,0,0,1,1088.02,-3297)">
                        <path d="M944.014,3355L944.014,3341C944.014,3338.79 945.806,3337 948.014,3337C950.222,3337 952.014,3338.79 952.014,3341L952.014,3355C952.014,3357.21 950.222,3359 948.014,3359C945.806,3359 944.014,3357.21 944.014,3355Z" style="fill:rgb(217,217,217);stroke:rgb(77,77,77);stroke-width:4px;stroke-linecap:square;"/>
                    </g>
                    <g transform="matrix(-6.12323e-17,1,1,6.12323e-17,-3209.99,-918.014)">
                        <path d="M944.014,3350L944.014,3336C944.014,3333.79 945.806,3332 948.014,3332C950.222,3332 952.014,3333.79 952.014,3336L952.014,3350C952.014,3352.21 950.222,3354 948.014,3354C945.806,3354 944.014,3352.21 944.014,3350Z" style="fill:rgb(217,217,217);stroke:rgb(77,77,77);stroke-width:4px;stroke-linecap:square;"/>
                    </g>
                    <g transform="matrix(-6.12323e-17,1,1,6.12323e-17,-3186.99,-904.014)">
                        <path d="M944.014,3355L944.014,3341C944.014,3338.79 945.806,3337 948.014,3337C950.222,3337 952.014,3338.79 952.014,3341L952.014,3355C952.014,3357.21 950.222,3359 948.014,3359C945.806,3359 944.014,3357.21 944.014,3355Z" style="fill:rgb(217,217,217);stroke:rgb(77,77,77);stroke-width:4px;stroke-linecap:square;"/>
                    </g>
                    <g transform="matrix(0.707107,-0.707107,0.707107,0.707107,-1020.63,173.543)">
                        <path d="M942,735C944.208,735 946,736.792 946,739C946,741.208 944.208,743 942,743C939.792,743 935.172,739 935.172,739C935.172,739 939.792,735 942,735Z" style="fill:rgb(217,217,217);stroke:rgb(77,77,77);stroke-width:4px;stroke-linecap:square;"/>
                    </g>
                    <g transform="matrix(0.707107,-0.707107,0.707107,0.707107,-1034.63,201.543)">
                        <path d="M942,732.172C942,732.172 946,736.792 946,739C946,741.208 944.208,743 942,743C939.792,743 938,741.208 938,739C938,736.792 942,732.172 942,732.172Z" style="fill:rgb(217,217,217);stroke:rgb(77,77,77);stroke-width:4px;stroke-linecap:square;"/>
                    </g>
                    <g transform="matrix(0.707107,-0.707107,0.707107,0.707107,-1062.65,187.543)">
                        <path d="M942,735C944.208,735 948.828,739 948.828,739C948.828,739 944.208,743 942,743C939.792,743 938,741.208 938,739C938,736.792 939.792,735 942,735Z" style="fill:rgb(217,217,217);stroke:rgb(77,77,77);stroke-width:4px;stroke-linecap:square;"/>
                    </g>
                    <g transform="matrix(0.707107,-0.707107,0.707107,0.707107,-1048.64,159.543)">
                        <path d="M942,735C944.208,735 946,736.792 946,739C946,741.208 942,745.828 942,745.828C942,745.828 938,741.208 938,739C938,736.792 939.792,735 942,735Z" style="fill:rgb(217,217,217);stroke:rgb(77,77,77);stroke-width:4px;stroke-linecap:square;"/>
                    </g>
                </g>
            </g>
        </g>
    </g>
</svg>
