<?xml version="1.0" encoding="UTF-8" standalone="no"?>
<!DOCTYPE svg PUBLIC "-//W3C//DTD SVG 1.1//EN" "http://www.w3.org/Graphics/SVG/1.1/DTD/svg11.dtd">
<svg width="100%" height="100%" viewBox="0 0 80 80" version="1.1" xmlns="http://www.w3.org/2000/svg" xmlns:xlink="http://www.w3.org/1999/xlink" xml:space="preserve" xmlns:serif="http://www.serif.com/" style="fill-rule:evenodd;clip-rule:evenodd;stroke-linecap:round;stroke-linejoin:round;stroke-miterlimit:10;">
    <g transform="matrix(1,0,0,1,-100,-1310)">
        <g transform="matrix(1,0,0,1,0,1300)">
            <rect id="NWDRuntime" x="0" y="0" width="800" height="400" style="fill:none;"/>
            <g id="NWDRuntime1" serif:id="NWDRuntime">
                <g transform="matrix(1,0,0,1,-1070,10)">
                    <g transform="matrix(1.00484,0,0,0.502419,-95.9552,-70.4155)">
                        <path d="M1299.7,219.713L1337.51,257.53L1299.7,295.347L1261.88,257.53L1299.7,219.713Z" style="fill:rgb(153,153,153);stroke:rgb(77,77,77);stroke-width:5.04px;"/>
                    </g>
                    <g transform="matrix(1,0,0,1,-90,-180)">
                        <path d="M1262.03,228.972C1262.03,228.972 1262,222.888 1262,220C1262,212.268 1268.27,206 1276,206C1276.77,206 1277.52,206.078 1278.25,206.198C1278.09,205.49 1278,204.756 1278,204C1278,198.477 1282.48,194 1288,194C1289.58,194 1291.08,194.379 1292.41,195.034C1295.52,189.64 1301.33,186 1308,186C1317.94,186 1326,194.059 1326,204C1326,204.725 1325.94,205.436 1325.86,206.138C1332.71,207.051 1338,212.901 1338,220C1338,222.879 1338.03,228.972 1338.03,228.972L1300.03,247.972L1262.03,228.972Z" style="fill:rgb(205,132,203);fill-rule:nonzero;stroke:rgb(147,39,143);stroke-width:4px;stroke-linecap:square;"/>
                    </g>
                </g>
                <g transform="matrix(1.73913,0,0,1.95122,-249.565,-109.007)">
                    <path d="M247.575,102.512L200.425,102.512L200.425,60.487L247.575,60.487L247.575,102.512ZM247,61L201,61L201,102L247,102L247,61Z" style="fill:rgb(249,63,63);"/>
                </g>
                <g transform="matrix(1,0,0,1,-58.2606,-187.994)">
                    <path d="M203.748,220.725C205.859,221.269 207.853,222.106 209.684,223.189C208.463,225.46 208.811,228.355 210.728,230.272C212.645,232.189 215.54,232.537 217.811,231.316C218.894,233.147 219.731,235.141 220.275,237.252C217.803,237.994 216,240.288 216,243C216,245.712 217.803,248.006 220.275,248.748C219.731,250.859 218.894,252.853 217.811,254.684C215.54,253.463 212.645,253.811 210.728,255.728C208.811,257.645 208.463,260.54 209.684,262.811C207.853,263.894 205.859,264.731 203.748,265.275C203.006,262.803 200.712,261 198,261C195.288,261 192.994,262.803 192.252,265.275C190.141,264.731 188.147,263.894 186.316,262.811C187.537,260.54 187.189,257.645 185.272,255.728C183.355,253.811 180.46,253.463 178.189,254.684C177.106,252.853 176.269,250.859 175.725,248.748C178.197,248.006 180,245.712 180,243C180,240.288 178.197,237.994 175.725,237.252C176.269,235.141 177.106,233.147 178.189,231.316C180.46,232.537 183.355,232.189 185.272,230.272C187.189,228.355 187.537,225.46 186.316,223.189C188.147,222.106 190.141,221.269 192.252,220.725C192.994,223.197 195.288,225 198,225C200.712,225 203.006,223.197 203.748,220.725ZM204,242.5C204,239.189 201.311,236.5 198,236.5C194.689,236.5 192,239.189 192,242.5C192,245.811 194.689,248.5 198,248.5C201.311,248.5 204,245.811 204,242.5Z" style="fill:rgb(217,217,217);stroke:rgb(77,77,77);stroke-width:4px;"/>
                </g>
            </g>
        </g>
    </g>
</svg>
