<?xml version="1.0" encoding="UTF-8" standalone="no"?>
<!DOCTYPE svg PUBLIC "-//W3C//DTD SVG 1.1//EN" "http://www.w3.org/Graphics/SVG/1.1/DTD/svg11.dtd">
<svg width="100%" height="100%" viewBox="0 0 60 60" version="1.1" xmlns="http://www.w3.org/2000/svg" xmlns:xlink="http://www.w3.org/1999/xlink" xml:space="preserve" xmlns:serif="http://www.serif.com/" style="fill-rule:evenodd;clip-rule:evenodd;stroke-linejoin:round;stroke-miterlimit:2;">
    <g transform="matrix(1,0,0,1,-378,-1604)">
        <g transform="matrix(1.875,0,0,5.55556,0,0)">
            <rect id="Assets" x="0" y="0" width="1600" height="900" style="fill:none;"/>
            <g id="Assets1" serif:id="Assets">
                <g id="Pages-Styles" serif:id="Pages Styles">
                </g>
                <g id="Layout-Card" serif:id="Layout Card">
                </g>
                <g id="Dev">
                    <g id="Strange-shapes" serif:id="Strange shapes">
                    </g>
                    <g transform="matrix(0.538636,0,0,0.184718,217.6,293.102)">
                        <g id="Icons">
                            <path d="M0,11.999C-3.313,11.999 -6,9.313 -6,5.999C-6,2.686 -3.313,-0.001 0,-0.001C3.313,-0.001 6,2.686 6,5.999C6,9.313 3.313,11.999 0,11.999ZM19.43,9.566C19.895,7.043 19.871,4.387 19.281,1.725C19.281,1.725 20.974,1.35 22.577,0.994C23.337,0.826 23.989,0.35 24.372,-0.318C24.756,-0.985 24.835,-1.781 24.59,-2.508C24.095,-3.888 23.509,-5.212 22.824,-6.466C22.446,-7.143 21.79,-7.628 21.024,-7.798C20.257,-7.967 19.454,-7.805 18.817,-7.352C17.483,-6.425 16.103,-5.444 16.103,-5.444C14.615,-7.535 12.743,-9.299 10.611,-10.657C10.611,-10.657 11.561,-12.148 12.45,-13.544C12.863,-14.191 12.979,-14.979 12.771,-15.716C12.563,-16.452 12.049,-17.067 11.356,-17.411C10.171,-17.967 8.949,-18.451 7.692,-18.842C6.943,-19.067 6.132,-18.967 5.463,-18.566C4.794,-18.165 4.331,-17.501 4.192,-16.742C3.878,-15.132 3.566,-13.431 3.566,-13.431C1.043,-13.895 -1.612,-13.872 -4.274,-13.282C-4.274,-13.282 -4.659,-15.017 -5.018,-16.637C-5.182,-17.378 -5.653,-18.017 -6.318,-18.401C-6.983,-18.784 -7.78,-18.877 -8.517,-18.656C-9.945,-18.216 -11.337,-17.702 -12.641,-17.073C-13.343,-16.712 -13.852,-16.071 -14.037,-15.313C-14.221,-14.555 -14.063,-13.756 -13.603,-13.122C-12.577,-11.666 -11.443,-10.103 -11.443,-10.103C-13.534,-8.615 -15.299,-6.743 -16.656,-4.612C-16.656,-4.612 -18.084,-5.522 -19.454,-6.395C-20.118,-6.818 -20.934,-6.94 -21.695,-6.732C-22.456,-6.523 -23.09,-6.002 -23.436,-5.303C-23.994,-4.106 -24.479,-2.872 -24.868,-1.603C-25.086,-0.871 -24.979,-0.082 -24.574,0.568C-24.168,1.218 -23.502,1.669 -22.74,1.809C-21.13,2.121 -19.43,2.433 -19.43,2.433C-19.895,4.956 -19.871,7.611 -19.281,10.274C-19.281,10.274 -20.974,10.649 -22.577,11.005C-23.337,11.173 -23.989,11.649 -24.372,12.317C-24.756,12.984 -24.835,13.78 -24.59,14.507C-24.095,15.887 -23.508,17.21 -22.824,18.465C-22.446,19.142 -21.79,19.627 -21.024,19.796C-20.257,19.966 -19.454,19.804 -18.817,19.351C-17.483,18.424 -16.103,17.443 -16.103,17.443C-14.615,19.534 -12.743,21.298 -10.611,22.656C-10.611,22.656 -11.561,24.146 -12.45,25.542C-12.863,26.19 -12.979,26.978 -12.771,27.714C-12.562,28.45 -12.049,29.066 -11.355,29.41C-10.17,29.966 -8.949,30.45 -7.692,30.84C-6.943,31.066 -6.132,30.966 -5.463,30.565C-4.794,30.163 -4.331,29.5 -4.192,28.741C-3.878,27.131 -3.566,25.43 -3.566,25.43C-1.043,25.894 1.612,25.871 4.274,25.281C4.274,25.281 4.648,26.97 5.003,28.57C5.171,29.329 5.661,29.98 6.348,30.36C7.036,30.74 7.856,30.812 8.601,30.558C9.968,30.061 11.281,29.474 12.525,28.791C13.194,28.415 13.671,27.779 13.84,27.039C14.009,26.299 13.853,25.524 13.412,24.902C12.467,23.543 11.443,22.102 11.443,22.102C13.534,20.614 15.299,18.742 16.656,16.61C16.656,16.61 18.085,17.52 19.455,18.393C20.118,18.816 20.934,18.939 21.695,18.73C22.457,18.521 23.09,18.001 23.436,17.301C23.994,16.105 24.479,14.871 24.868,13.601C25.086,12.869 24.979,12.08 24.574,11.43C24.168,10.78 23.501,10.329 22.739,10.19C21.13,9.878 19.43,9.566 19.43,9.566Z" style="fill:rgb(132,201,205);fill-rule:nonzero;"/>
                            <path d="M21.607,8.009C21.607,8.009 23.116,8.308 23.096,8.304C23.746,8.432 24.356,8.682 24.885,9.051C25.412,9.418 25.87,9.885 26.207,10.443C26.544,10.999 26.763,11.608 26.839,12.237C26.916,12.864 26.871,13.507 26.678,14.123C26.676,14.128 26.675,14.133 26.674,14.137C26.457,14.811 26.216,15.475 25.952,16.128C25.688,16.78 25.404,17.422 25.098,18.053C25.093,18.065 25.087,18.076 25.081,18.088C24.786,18.665 24.381,19.172 23.883,19.57C23.386,19.966 22.81,20.269 22.178,20.434C21.548,20.597 20.898,20.634 20.269,20.531C19.643,20.428 19.035,20.205 18.496,19.851C18.496,19.851 17.096,18.932 17.096,18.932C16.611,19.557 16.091,20.155 15.539,20.724C14.944,21.336 14.313,21.916 13.646,22.457C13.646,22.457 14.72,24.022 14.71,24.008C15.053,24.502 15.289,25.052 15.397,25.627C15.505,26.2 15.501,26.796 15.361,27.375C15.222,27.953 14.97,28.492 14.613,28.956C14.258,29.418 13.811,29.814 13.285,30.101C13.281,30.104 13.276,30.106 13.272,30.109C12.606,30.464 11.924,30.795 11.224,31.1C10.536,31.4 9.833,31.676 9.115,31.928C9.106,31.931 9.096,31.935 9.086,31.938C8.512,32.127 7.911,32.196 7.322,32.138C6.734,32.08 6.157,31.908 5.634,31.613C5.111,31.318 4.662,30.924 4.316,30.455C3.971,29.987 3.72,29.451 3.598,28.872C3.598,28.872 3.176,26.886 3.176,26.886C2.242,27.022 1.311,27.095 0.389,27.107C-0.577,27.119 -1.534,27.067 -2.476,26.951C-2.476,26.951 -2.863,28.983 -2.863,28.983C-2.968,29.547 -3.192,30.076 -3.514,30.539C-3.838,31.003 -4.26,31.401 -4.76,31.7C-5.259,31.999 -5.812,32.186 -6.379,32.256C-6.947,32.327 -7.529,32.28 -8.088,32.111C-8.092,32.11 -8.095,32.109 -8.099,32.108C-8.759,31.905 -9.409,31.677 -10.051,31.428C-10.691,31.18 -11.321,30.91 -11.942,30.621C-11.951,30.617 -11.96,30.612 -11.969,30.608C-12.488,30.353 -12.939,29.994 -13.301,29.563C-13.663,29.132 -13.934,28.627 -14.091,28.076C-14.249,27.526 -14.284,26.955 -14.204,26.4C-14.124,25.845 -13.925,25.307 -13.618,24.822C-13.618,24.822 -12.502,23.048 -12.502,23.048C-13.236,22.517 -13.936,21.939 -14.599,21.317C-15.236,20.719 -15.836,20.081 -16.397,19.404C-16.397,19.404 -17.974,20.526 -17.961,20.517C-18.448,20.867 -19,21.103 -19.577,21.223C-20.154,21.342 -20.758,21.339 -21.347,21.212C-21.938,21.085 -22.485,20.833 -22.959,20.486C-23.435,20.139 -23.833,19.691 -24.128,19.17C-24.131,19.166 -24.133,19.162 -24.135,19.157C-24.502,18.494 -24.843,17.811 -25.159,17.112C-25.47,16.425 -25.755,15.721 -26.017,15.003C-26.021,14.994 -26.024,14.985 -26.027,14.976C-26.22,14.413 -26.284,13.823 -26.23,13.244C-26.176,12.664 -25.996,12.096 -25.702,11.577C-25.407,11.056 -25.004,10.612 -24.53,10.262C-24.056,9.911 -23.506,9.66 -22.915,9.525C-22.915,9.525 -21.09,9.11 -21.09,9.11C-21.231,8.199 -21.311,7.291 -21.333,6.391C-21.356,5.485 -21.318,4.588 -21.224,3.702C-21.224,3.702 -23.051,3.364 -23.035,3.367C-23.64,3.258 -24.208,3.024 -24.705,2.689C-25.202,2.354 -25.627,1.915 -25.949,1.399C-26.27,0.882 -26.474,0.311 -26.553,-0.277C-26.633,-0.864 -26.589,-1.468 -26.415,-2.049C-26.414,-2.053 -26.413,-2.057 -26.412,-2.061C-26.206,-2.731 -25.976,-3.393 -25.721,-4.043C-25.467,-4.693 -25.188,-5.332 -24.891,-5.961C-24.886,-5.971 -24.881,-5.981 -24.876,-5.992C-24.598,-6.541 -24.212,-7.023 -23.739,-7.403C-23.268,-7.781 -22.72,-8.069 -22.119,-8.227C-21.519,-8.383 -20.9,-8.419 -20.302,-8.32C-19.706,-8.222 -19.128,-8.008 -18.616,-7.669C-18.616,-7.669 -17.028,-6.616 -17.028,-6.616C-16.506,-7.291 -15.943,-7.936 -15.341,-8.544C-14.682,-9.209 -13.98,-9.833 -13.235,-10.409C-13.235,-10.409 -14.616,-12.43 -14.607,-12.417C-14.93,-12.882 -15.153,-13.401 -15.248,-13.944C-15.343,-14.483 -15.333,-15.043 -15.189,-15.585C-15.045,-16.123 -14.797,-16.622 -14.448,-17.044C-14.101,-17.464 -13.67,-17.818 -13.166,-18.064C-13.158,-18.068 -13.15,-18.072 -13.142,-18.076C-12.448,-18.394 -11.734,-18.682 -11.002,-18.942C-10.29,-19.196 -9.565,-19.426 -8.829,-19.636C-8.827,-19.637 -8.824,-19.638 -8.822,-19.639C-8.312,-19.781 -7.785,-19.822 -7.271,-19.753C-6.76,-19.685 -6.26,-19.523 -5.81,-19.254C-5.361,-18.986 -4.976,-18.637 -4.68,-18.224C-4.386,-17.812 -4.172,-17.344 -4.069,-16.841C-4.069,-16.841 -3.543,-14.378 -3.543,-14.378C-2.483,-14.565 -1.427,-14.668 -0.381,-14.694C0.677,-14.721 1.724,-14.669 2.754,-14.54C2.754,-14.54 3.174,-16.934 3.172,-16.923C3.261,-17.448 3.468,-17.94 3.762,-18.373C4.056,-18.808 4.448,-19.178 4.908,-19.462C5.37,-19.747 5.884,-19.923 6.413,-19.995C6.943,-20.068 7.488,-20.025 8.014,-19.875C8.017,-19.874 8.02,-19.873 8.023,-19.872C8.68,-19.68 9.328,-19.462 9.967,-19.223C10.606,-18.985 11.235,-18.724 11.856,-18.445C11.864,-18.441 11.872,-18.437 11.879,-18.434C12.378,-18.197 12.808,-17.855 13.159,-17.449C13.511,-17.041 13.77,-16.558 13.929,-16.033C14.087,-15.506 14.121,-14.957 14.051,-14.424C13.981,-13.887 13.791,-13.368 13.5,-12.896C13.5,-12.896 12.362,-11.041 12.362,-11.041C13.131,-10.503 13.864,-9.912 14.558,-9.275C15.198,-8.688 15.803,-8.059 16.369,-7.392C16.369,-7.392 17.956,-8.553 17.943,-8.544C18.429,-8.904 18.987,-9.141 19.567,-9.27C20.151,-9.399 20.762,-9.396 21.361,-9.275C21.964,-9.154 22.52,-8.897 23.007,-8.55C23.498,-8.202 23.903,-7.744 24.212,-7.217C24.215,-7.212 24.217,-7.208 24.22,-7.203C24.598,-6.542 24.947,-5.86 25.274,-5.162C25.596,-4.476 25.891,-3.773 26.164,-3.055C26.168,-3.045 26.171,-3.035 26.174,-3.025C26.383,-2.443 26.448,-1.83 26.4,-1.228C26.352,-0.624 26.164,-0.033 25.864,0.513C25.563,1.061 25.141,1.524 24.651,1.897C24.158,2.272 23.581,2.534 22.963,2.683C22.963,2.683 21.405,3.06 21.405,3.06C21.538,3.91 21.619,4.759 21.652,5.602C21.683,6.411 21.667,7.214 21.607,8.009ZM17.481,9.218C17.718,8.065 17.848,6.879 17.848,5.674C17.849,4.498 17.739,3.305 17.499,2.108C17.285,1.144 17.902,0.191 18.88,-0.026L22.19,-0.694C22.331,-0.722 22.467,-0.767 22.581,-0.846C22.697,-0.928 22.806,-1.024 22.881,-1.148C22.957,-1.275 23.016,-1.409 23.033,-1.552C23.051,-1.698 23.051,-1.848 23.016,-1.962C22.797,-2.614 22.558,-3.254 22.294,-3.879C22.028,-4.51 21.742,-5.128 21.437,-5.715C21.359,-5.861 21.261,-5.994 21.131,-6.094C21,-6.195 20.852,-6.28 20.686,-6.32C20.517,-6.361 20.344,-6.377 20.177,-6.346C20.006,-6.315 19.838,-6.26 19.692,-6.161C19.688,-6.158 19.683,-6.155 19.679,-6.152L16.94,-4.304C16.63,-4.084 16.243,-3.995 15.865,-4.057C15.488,-4.12 15.152,-4.329 14.933,-4.637C14.262,-5.617 13.505,-6.526 12.668,-7.348C11.82,-8.182 10.896,-8.932 9.906,-9.585C9.311,-9.965 9.135,-10.744 9.512,-11.335L11.4,-14.192C11.518,-14.37 11.602,-14.565 11.636,-14.769C11.67,-14.976 11.669,-15.191 11.614,-15.398C11.558,-15.608 11.466,-15.805 11.332,-15.972C11.196,-16.14 11.03,-16.287 10.855,-16.378C10.289,-16.655 9.715,-16.915 9.131,-17.155C8.55,-17.394 7.96,-17.614 7.371,-17.809C7.146,-17.88 6.912,-17.908 6.682,-17.883C6.451,-17.857 6.223,-17.789 6.018,-17.669C5.811,-17.549 5.631,-17.392 5.496,-17.203C5.359,-17.012 5.258,-16.795 5.212,-16.561C5.211,-16.557 5.211,-16.554 5.21,-16.55L4.542,-13.257C4.495,-13.002 4.346,-12.775 4.129,-12.627C3.912,-12.48 3.643,-12.424 3.384,-12.472C2.17,-12.705 0.923,-12.824 -0.343,-12.807C-1.572,-12.79 -2.818,-12.647 -4.066,-12.375C-4.312,-12.321 -4.569,-12.365 -4.782,-12.498C-4.994,-12.631 -5.143,-12.842 -5.197,-13.084L-5.967,-16.433C-6.023,-16.671 -6.134,-16.89 -6.28,-17.082C-6.424,-17.272 -6.612,-17.428 -6.826,-17.548C-7.038,-17.666 -7.272,-17.733 -7.51,-17.757C-7.745,-17.78 -7.984,-17.747 -8.205,-17.676C-8.887,-17.45 -9.56,-17.206 -10.218,-16.94C-10.877,-16.675 -11.519,-16.385 -12.116,-16.081C-12.318,-15.972 -12.484,-15.816 -12.618,-15.639C-12.751,-15.465 -12.836,-15.259 -12.885,-15.041C-12.932,-14.827 -12.921,-14.608 -12.875,-14.399C-12.83,-14.192 -12.73,-14 -12.599,-13.827C-12.596,-13.823 -12.593,-13.818 -12.59,-13.814L-10.373,-10.854C-9.953,-10.275 -10.087,-9.472 -10.673,-9.055C-11.63,-8.342 -12.504,-7.539 -13.297,-6.666C-14.09,-5.792 -14.791,-4.843 -15.4,-3.837C-15.611,-3.506 -15.948,-3.273 -16.335,-3.188C-16.723,-3.103 -17.128,-3.175 -17.461,-3.388L-20.292,-5.121C-20.439,-5.211 -20.606,-5.257 -20.774,-5.28C-20.939,-5.302 -21.108,-5.283 -21.271,-5.236C-21.433,-5.19 -21.578,-5.105 -21.703,-5C-21.821,-4.901 -21.914,-4.776 -21.991,-4.622C-22.249,-4.06 -22.489,-3.489 -22.712,-2.911C-22.935,-2.333 -23.14,-1.747 -23.324,-1.148C-23.366,-1 -23.377,-0.847 -23.356,-0.697C-23.335,-0.545 -23.282,-0.397 -23.199,-0.263C-23.115,-0.129 -23.004,-0.017 -22.876,0.071C-22.747,0.158 -22.601,0.222 -22.444,0.251C-22.439,0.252 -22.434,0.253 -22.428,0.254L-19.137,0.886C-18.272,1.045 -17.7,1.862 -17.857,2.714C-18.079,3.893 -18.185,5.103 -18.167,6.331C-18.149,7.524 -18.018,8.734 -17.757,9.947C-17.574,10.771 -18.102,11.587 -18.938,11.772L-22.238,12.484C-22.407,12.52 -22.565,12.587 -22.701,12.686C-22.838,12.784 -22.957,12.909 -23.043,13.057C-23.13,13.206 -23.186,13.368 -23.203,13.535C-23.221,13.701 -23.207,13.871 -23.155,14.033C-22.927,14.678 -22.68,15.31 -22.409,15.927C-22.134,16.556 -21.837,17.17 -21.514,17.77C-21.429,17.921 -21.316,18.053 -21.179,18.155C-21.038,18.261 -20.876,18.34 -20.7,18.38C-20.523,18.421 -20.341,18.426 -20.167,18.392C-19.991,18.357 -19.822,18.29 -19.673,18.185C-19.669,18.182 -19.664,18.179 -19.66,18.176L-16.948,16.292C-16.635,16.07 -16.244,15.98 -15.863,16.043C-15.482,16.107 -15.143,16.317 -14.922,16.629C-14.24,17.598 -13.471,18.494 -12.627,19.305C-11.773,20.125 -10.843,20.861 -9.851,21.501C-9.209,21.909 -9.02,22.75 -9.426,23.387L-11.282,26.263C-11.386,26.425 -11.455,26.604 -11.483,26.79C-11.511,26.975 -11.502,27.167 -11.45,27.352C-11.399,27.538 -11.31,27.709 -11.189,27.855C-11.069,27.999 -10.921,28.121 -10.75,28.208C-10.191,28.472 -9.623,28.719 -9.047,28.947C-8.47,29.176 -7.885,29.385 -7.287,29.573C-7.1,29.628 -6.905,29.642 -6.716,29.619C-6.523,29.595 -6.336,29.531 -6.166,29.429C-5.996,29.328 -5.853,29.192 -5.743,29.035C-5.633,28.877 -5.557,28.697 -5.522,28.504C-5.521,28.5 -5.52,28.495 -5.519,28.49L-4.9,25.193C-4.836,24.843 -4.633,24.533 -4.336,24.331C-4.039,24.13 -3.672,24.053 -3.317,24.118C-2.126,24.33 -0.903,24.425 0.334,24.393C1.535,24.362 2.749,24.208 3.965,23.93C4.331,23.849 4.714,23.914 5.03,24.113C5.346,24.311 5.569,24.625 5.649,24.986L6.409,28.269C6.451,28.449 6.535,28.614 6.646,28.759C6.756,28.902 6.9,29.019 7.063,29.107C7.225,29.195 7.404,29.241 7.584,29.255C7.754,29.268 7.926,29.242 8.115,29.178C8.747,28.939 9.366,28.679 9.971,28.399C10.589,28.113 11.192,27.804 11.765,27.481C11.91,27.397 12.03,27.279 12.127,27.147C12.222,27.017 12.284,26.864 12.319,26.703C12.353,26.544 12.345,26.382 12.312,26.226C12.28,26.072 12.208,25.927 12.113,25.797C12.109,25.792 12.106,25.787 12.103,25.783L10.112,23.018C9.603,22.303 9.772,21.318 10.491,20.806C11.44,20.115 12.311,19.335 13.099,18.483C13.89,17.629 14.59,16.699 15.2,15.712C15.444,15.328 15.835,15.057 16.284,14.959C16.733,14.861 17.204,14.944 17.59,15.19L20.414,16.935C20.534,17.009 20.67,17.047 20.807,17.066C20.942,17.084 21.079,17.065 21.213,17.026C21.344,16.988 21.459,16.915 21.56,16.829C21.652,16.752 21.721,16.652 21.781,16.532C22.033,15.971 22.267,15.4 22.482,14.823C22.697,14.245 22.89,13.659 23.059,13.08C23.091,12.966 23.087,12.847 23.07,12.733C23.053,12.621 23.003,12.516 22.94,12.418C22.878,12.322 22.789,12.248 22.695,12.187C22.603,12.126 22.494,12.094 22.382,12.075C22.376,12.074 22.369,12.073 22.363,12.072L19.067,11.482C17.996,11.285 17.287,10.274 17.481,9.218ZM0,13.948C-2.15,13.705 -4.03,12.772 -5.286,11.211C-6.439,9.778 -7.179,7.978 -6.991,5.999C-6.983,5.255 -6.818,4.552 -6.637,3.869C-6.344,2.763 -5.882,1.755 -5.189,0.88C-4.459,-0.042 -3.5,-0.772 -2.375,-1.205C-1.642,-1.487 -0.829,-1.578 0,-1.575C2.091,-1.509 3.964,-0.631 5.294,0.78C6.58,2.145 7.394,3.975 7.355,5.999C7.471,8.048 6.665,9.904 5.418,11.338C4.095,12.86 2.172,13.786 0,13.948ZM0,10.05C1.168,10.137 2.286,9.831 3.1,9.111C3.972,8.341 4.574,7.251 4.645,5.999C4.62,4.726 4.078,3.584 3.225,2.767C2.394,1.971 1.24,1.534 0,1.573C-0.574,1.569 -1.114,1.699 -1.629,1.869C-2.484,2.151 -3.306,2.507 -3.905,3.164C-4.255,3.548 -4.6,3.951 -4.787,4.446C-4.969,4.926 -5.015,5.458 -5.009,5.999C-4.883,7.33 -4.193,8.453 -3.233,9.238C-2.364,9.949 -1.201,10.186 0,10.05Z" style="fill:rgb(38,143,147);"/>
                        </g>
                    </g>
                    <g id="Text">
                    </g>
                </g>
            </g>
        </g>
    </g>
</svg>
