<?xml version="1.0" encoding="UTF-8" standalone="no"?>
<!DOCTYPE svg PUBLIC "-//W3C//DTD SVG 1.1//EN" "http://www.w3.org/Graphics/SVG/1.1/DTD/svg11.dtd">
<svg width="100%" height="100%" viewBox="0 0 60 60" version="1.1" xmlns="http://www.w3.org/2000/svg" xmlns:xlink="http://www.w3.org/1999/xlink" xml:space="preserve" xmlns:serif="http://www.serif.com/" style="fill-rule:evenodd;clip-rule:evenodd;stroke-linejoin:round;stroke-miterlimit:2;">
    <g transform="matrix(1,0,0,1,-538,-1604)">
        <g transform="matrix(1.875,0,0,5.55556,0,0)">
            <rect id="Assets" x="0" y="0" width="1600" height="900" style="fill:none;"/>
            <g id="Assets1" serif:id="Assets">
                <g id="Pages-Styles" serif:id="Pages Styles">
                </g>
                <g id="Layout-Card" serif:id="Layout Card">
                </g>
                <g id="Dev">
                    <g id="Strange-shapes" serif:id="Strange shapes">
                    </g>
                    <g id="Icons">
                        <g transform="matrix(-0.533333,0,0,0.18,3006.93,175.32)">
                            <path d="M5058,670L5049,660L5058,650L5048,660L5058,670Z" style="fill:rgb(132,201,205);"/>
                            <path d="M5059.41,668.589L5059.41,668.586C5059.41,668.586 5059.38,668.556 5059.32,668.5C5058.07,667.305 5050.38,659.913 5050.38,659.912C5050.67,659.567 5051.05,659.128 5051.52,658.644C5053.02,657.063 5055.37,655.091 5057,653.447C5058.32,652.126 5059.21,651.087 5059.21,651.087C5059.8,650.432 5059.76,649.427 5059.12,648.821C5058.48,648.215 5057.47,648.228 5056.85,648.851L5056.79,648.913L5047.03,659.034C5046.5,659.568 5046.5,660.432 5047.03,660.966C5047.03,660.966 5048.33,662.308 5049.94,664.057C5052.5,666.831 5055.86,670.596 5056.48,671.299L5056.51,671.338L5056.52,671.336C5056.56,671.387 5056.59,671.414 5056.59,671.414C5057.35,672.181 5058.59,672.197 5059.38,671.451C5060.16,670.705 5060.21,669.468 5059.49,668.662C5059.49,668.662 5059.46,668.637 5059.41,668.589Z" style="fill:rgb(38,143,147);"/>
                        </g>
                        <g transform="matrix(0.533333,0,0,0.18,-2401.07,175.32)">
                            <path d="M5058,670L5049,660L5058,650L5048,660L5058,670Z" style="fill:rgb(132,201,205);"/>
                            <path d="M5056.79,648.913L5056.85,648.851C5057.47,648.228 5058.48,648.215 5059.12,648.821C5059.76,649.427 5059.8,650.432 5059.21,651.087C5059.21,651.087 5058.32,652.126 5057,653.447C5055.37,655.091 5053.02,657.063 5051.52,658.644C5051.05,659.128 5050.67,659.567 5050.38,659.913L5059.32,668.5C5059.38,668.556 5059.41,668.586 5059.41,668.586L5059.41,668.589L5059.49,668.662C5060.21,669.468 5060.16,670.705 5059.38,671.451C5058.59,672.197 5057.35,672.181 5056.59,671.414C5056.59,671.414 5056.56,671.387 5056.52,671.336L5056.51,671.338L5056.48,671.299C5055.86,670.596 5052.5,666.831 5049.94,664.057C5048.33,662.308 5047.03,660.966 5047.03,660.966C5046.5,660.432 5046.5,659.568 5047.03,659.034L5056.79,648.913Z" style="fill:rgb(38,143,147);"/>
                        </g>
                        <g transform="matrix(0.533333,0,0,0.18,-38.9333,1.8)">
                            <path d="M622,1624L662,1624" style="fill:none;"/>
                            <path d="M622,1626L620,1626L620,1622L622,1622C622,1622 625.45,1622.46 630.4,1622.88C631.205,1622.94 632.044,1623.02 632.92,1623.04C633.275,1623.05 633.636,1623.04 634,1623.02C635.807,1622.9 637.659,1622.52 639.6,1622.4C640.313,1622.36 641.032,1622.37 641.75,1622.38C644.698,1622.41 647.646,1622.61 650.352,1622.63C651.281,1622.64 652.181,1622.63 653.04,1622.6C658.266,1622.39 662,1622 662,1622L664,1622L664,1626L662,1626C662,1626 658.266,1625.61 653.04,1625.4C652.181,1625.37 651.281,1625.36 650.352,1625.37C647.646,1625.39 644.698,1625.59 641.75,1625.62C641.032,1625.63 640.313,1625.64 639.6,1625.6C637.659,1625.48 635.807,1625.1 634,1624.98C633.636,1624.96 633.275,1624.95 632.92,1624.96C632.044,1624.98 631.205,1625.06 630.4,1625.12C625.45,1625.54 622,1626 622,1626Z" style="fill:rgb(38,143,147);"/>
                        </g>
                    </g>
                    <g id="Text">
                    </g>
                </g>
            </g>
        </g>
    </g>
</svg>
