<?xml version="1.0" encoding="UTF-8" standalone="no"?>
<!DOCTYPE svg PUBLIC "-//W3C//DTD SVG 1.1//EN" "http://www.w3.org/Graphics/SVG/1.1/DTD/svg11.dtd">
<svg width="100%" height="100%" viewBox="0 0 60 60" version="1.1" xmlns="http://www.w3.org/2000/svg" xmlns:xlink="http://www.w3.org/1999/xlink" xml:space="preserve" xmlns:serif="http://www.serif.com/" style="fill-rule:evenodd;clip-rule:evenodd;stroke-linejoin:round;stroke-miterlimit:2;">
    <g transform="matrix(1,0,0,1,-618,-1604)">
        <g transform="matrix(1.875,0,0,5.55556,0,0)">
            <rect id="Assets" x="0" y="0" width="1600" height="900" style="fill:none;"/>
            <g id="Assets1" serif:id="Assets">
                <g id="Pages-Styles" serif:id="Pages Styles">
                </g>
                <g id="Layout-Card" serif:id="Layout Card">
                </g>
                <g id="Dev">
                    <g id="Strange-shapes" serif:id="Strange shapes">
                    </g>
                    <g id="Icons">
                        <g transform="matrix(0.533333,0,0,0.18,1.6,0.54)">
                            <path d="M622,1624L662,1624" style="fill:none;"/>
                            <path d="M622,1626L620,1626L620,1622L622,1622C622,1622 625.45,1622.46 630.4,1622.88C631.205,1622.94 632.044,1623.02 632.92,1623.04C633.275,1623.05 633.636,1623.04 634,1623.02C635.807,1622.9 637.659,1622.52 639.6,1622.4C640.313,1622.36 641.032,1622.37 641.75,1622.38C644.698,1622.41 647.646,1622.61 650.352,1622.63C651.281,1622.64 652.181,1622.63 653.04,1622.6C658.266,1622.39 662,1622 662,1622L664,1622L664,1626L662,1626C662,1626 658.266,1625.61 653.04,1625.4C652.181,1625.37 651.281,1625.36 650.352,1625.37C647.646,1625.39 644.698,1625.59 641.75,1625.62C641.032,1625.63 640.313,1625.64 639.6,1625.6C637.659,1625.48 635.807,1625.1 634,1624.98C633.636,1624.96 633.275,1624.95 632.92,1624.96C632.044,1624.98 631.205,1625.06 630.4,1625.12C625.45,1625.54 622,1626 622,1626Z" style="fill:rgb(38,143,147);"/>
                        </g>
                        <g transform="matrix(0.533333,0,0,0.18,1.6,2.7)">
                            <path d="M622,1624L646,1624" style="fill:none;"/>
                            <path d="M622,1626L620,1626L620,1622L622,1622C622,1622 624.032,1622.45 627.04,1622.88C627.524,1622.94 628.023,1623.02 628.552,1623.04C628.765,1623.05 628.982,1623.04 629.2,1623.02C630.303,1622.9 631.374,1622.52 632.56,1622.4C632.986,1622.36 633.419,1622.37 633.85,1622.38C635.621,1622.41 637.385,1622.61 639.011,1622.63C639.569,1622.64 640.109,1622.63 640.624,1622.6C643.78,1622.39 646,1622 646,1622L648,1622L648,1626L646,1626C646,1626 643.78,1625.61 640.624,1625.4C640.109,1625.37 639.569,1625.36 639.011,1625.37C637.385,1625.39 635.621,1625.59 633.85,1625.62C633.419,1625.63 632.986,1625.64 632.56,1625.6C631.374,1625.48 630.303,1625.1 629.2,1624.98C628.982,1624.96 628.765,1624.95 628.552,1624.96C628.023,1624.98 627.524,1625.06 627.04,1625.12C624.032,1625.55 622,1626 622,1626Z" style="fill:rgb(38,143,147);"/>
                        </g>
                    </g>
                    <g id="Text">
                    </g>
                </g>
            </g>
        </g>
    </g>
</svg>
