<?xml version="1.0" encoding="UTF-8" standalone="no"?><!DOCTYPE svg PUBLIC "-//W3C//DTD SVG 1.1//EN" "http://www.w3.org/Graphics/SVG/1.1/DTD/svg11.dtd"><svg width="100%" height="100%" viewBox="0 0 334 334" version="1.1" xmlns="http://www.w3.org/2000/svg" xmlns:xlink="http://www.w3.org/1999/xlink" xml:space="preserve" xmlns:serif="http://www.serif.com/" style="fill-rule:evenodd;clip-rule:evenodd;stroke-linejoin:round;stroke-miterlimit:2;"><rect id="Assets" x="-41.667" y="-41.667" width="12500" height="20833.3" style="fill:none;"/><g id="Assets1" serif:id="Assets"><g id="Pages-Styles" serif:id="Pages Styles"></g><g id="Layout-Card" serif:id="Layout Card"></g><g id="Dev"><g id="Strange-shapes" serif:id="Strange shapes"></g><g id="Icons"><path d="M274.425,113.075c28.542,3.804 50.575,28.179 50.575,57.758c-0,32.217 -26.117,58.334 -58.333,58.334l-200,-0c-32.217,-0 -58.334,-26.117 -58.334,-58.334c0,-32.216 26.117,-58.333 58.334,-58.333c3.2,0 6.316,0.325 9.375,0.825c-0.663,-2.95 -1.042,-6.008 -1.042,-9.158c-0,-23.013 18.654,-41.667 41.667,-41.667c6.6,0 12.816,1.579 18.362,4.308c12.954,-22.475 37.167,-37.641 64.971,-37.641c41.421,-0 75,33.579 75,75c-0,3.021 -0.229,5.983 -0.575,8.908Zm-191.129,32.758c-13.819,0 -25.037,11.219 -25.037,25.038c-0,13.818 11.218,25.037 25.037,25.037c13.818,0 25.037,-11.219 25.037,-25.037c0,-13.819 -11.219,-25.038 -25.037,-25.038Zm166.667,0c-13.819,0 -25.038,11.219 -25.038,25.038c0,13.818 11.219,25.037 25.038,25.037c13.818,0 25.037,-11.219 25.037,-25.037c-0,-13.819 -11.219,-25.038 -25.037,-25.038Zm-108.371,25.038c-0,13.818 11.219,25.037 25.037,25.037c13.819,0 25.038,-11.219 25.038,-25.037c-0,-13.819 -50.075,-13.819 -50.075,-0Zm-83.259,83.296l50,-0c13.798,-0 25,11.202 25,25c0,13.798 -11.202,25 -25,25l-50,-0c-13.798,-0 -25,-11.202 -25,-25c0,-13.798 11.202,-25 25,-25Zm170.834,-0l50,-0c13.798,-0 25,11.202 25,25c-0,13.798 -11.202,25 -25,25l-50,-0c-13.798,-0 -25,-11.202 -25,-25c-0,-13.798 11.202,-25 25,-25Z" style="fill:#84c9cd;"/><path d="M69.19,106.594c-0.039,-0.803 -0.057,-1.613 -0.052,-2.427c0.058,-13.105 5.412,-24.941 14.023,-33.506c8.594,-8.55 20.424,-13.862 33.506,-13.85c3.697,-0.01 7.288,0.426 10.739,1.223c1.795,0.415 3.552,0.93 5.263,1.539c6.809,-10.447 15.979,-19.211 26.72,-25.605c11.899,-7.084 25.758,-11.212 40.611,-11.39c22.639,-0.301 43.198,8.718 58.246,23.343c15.201,14.776 24.672,35.374 25.018,58.246l-0.13,2.278c13.093,3.606 24.563,11.032 33.027,21.104c9.827,11.693 15.745,26.804 15.397,43.284c-0.36,17.794 -7.777,33.792 -19.662,45.23c-11.722,11.281 -27.678,18.223 -45.229,17.906c-0,-0 -20.313,-0.455 -48,-0.694c-9.92,-0.085 -20.785,-0.194 -32,-0.09c-55.71,0.518 -120,2.569 -120,2.569c-17.954,0.075 -34.279,-7.111 -46.041,-18.88c-11.758,-11.767 -18.935,-28.091 -18.849,-46.041c0.114,-17.878 7.421,-34.035 19.212,-45.678c11.737,-11.59 27.879,-18.745 45.678,-18.633c0.846,0.005 1.687,0.03 2.523,0.072Zm196.959,5.503l0.587,-7.93c0.281,-18.554 -6.93,-35.488 -18.916,-47.82c-12.135,-12.486 -29.035,-20.342 -47.82,-20.592c-12.524,-0.15 -24.307,3.025 -34.462,8.789c-10.545,5.985 -19.355,14.689 -25.506,25.148c-1.519,2.636 -4.823,3.641 -7.553,2.298c-2.425,-1.213 -4.997,-2.185 -7.694,-2.833c-2.605,-0.626 -5.321,-0.96 -8.118,-0.968c-9.932,0.009 -18.93,4.032 -25.42,10.558c-6.476,6.509 -10.429,15.512 -10.385,25.42c0.008,1.331 0.1,2.643 0.257,3.934c0.162,1.332 0.401,2.641 0.698,3.927c0.431,1.919 -0.119,3.927 -1.468,5.358c-1.35,1.431 -3.321,2.098 -5.262,1.781l-8.42,-0.689c-14.419,0.09 -27.429,6.029 -36.818,15.537c-9.337,9.456 -15.051,22.48 -14.96,36.818c0.069,14.268 5.969,27.109 15.322,36.456c9.35,9.344 22.193,15.231 36.456,15.29c-0,0 64.29,2.052 120,2.569c11.214,0.104 22.08,-0.005 32,-0.09c27.687,-0.239 48,-0.693 48,-0.693c14.67,-0.266 27.836,-6.467 37.266,-16.265c9.275,-9.637 14.801,-22.838 14.509,-37.267c-0.274,-12.942 -5.375,-24.618 -13.474,-33.466c-8.049,-8.794 -19.197,-14.641 -31.644,-16.032c-4.514,-0.601 -7.709,-4.716 -7.175,-9.238Zm-132.89,58.774c0.299,-3.664 1.449,-7.059 4.369,-9.66c4.352,-3.877 12.886,-6.586 22.603,-6.75c4.034,-0.068 8.204,0.194 12.232,0.588c7.632,0.748 14.646,2.341 19.015,5.1c4.296,2.713 6.383,6.489 6.552,10.722c0.187,6.056 -1.285,11.837 -4.269,16.635c-1.32,2.122 -2.893,4.102 -4.805,5.692c-4.92,4.091 -11.059,6.345 -17.742,6.649c-1.511,0.069 -3.03,0.168 -4.585,0.045c-2.344,0.104 -4.614,-0.184 -6.835,-0.541c-5.609,-0.901 -10.59,-3.333 -14.914,-6.731c-6.543,-5.14 -10.443,-12.857 -11.621,-21.749Zm52.045,0.002c-0,-0.001 -0,-0.001 -0,-0.002c-0,0.001 -0,0.001 -0,0.002Zm-35.46,0.676c0.024,-0.226 0.051,-0.452 0.081,-0.678c0.015,0.183 -0.016,0.437 -0.081,0.678c-0.51,4.802 0.36,9.419 3.134,12.973c1.619,2.077 3.463,3.996 5.833,5.235c2.357,1.232 5,1.991 7.818,2.168c4.451,-0.576 8.111,-2.831 11.172,-5.666c1.315,-1.217 2.219,-2.746 3.259,-4.203c2.236,-3.134 4.034,-6.715 4.231,-10.828c-0.599,0.007 -1.011,-1.36 -1.874,-1.814c-2.941,-1.546 -7.032,-2.689 -11.451,-2.985c-6.357,-0.424 -13.238,0.796 -18.423,2.747c-2.012,0.757 -5.538,2.184 -4.354,3.02c0.291,0.206 0.533,-0.197 0.655,-0.647Zm100.119,-34.049c9.014,0.695 16.999,4.537 22.52,10.85c5.288,6.046 8.709,13.876 8.219,22.521c0.165,8.536 -3.286,16.256 -8.738,22.001c-5.545,5.844 -13.321,9.481 -22.001,9.768c-3.428,0.013 -6.792,-0.355 -9.829,-1.522c-4.685,-1.801 -8.685,-4.841 -11.74,-8.679c-2.929,-3.679 -4.887,-7.919 -6.131,-12.568c-0.771,-2.884 -1.473,-5.855 -1.508,-9c-0.792,-8.341 2.351,-15.926 7.238,-21.97c5.241,-6.482 13.044,-10.359 21.97,-11.401Zm-0,16.667c-4.985,-0.582 -9.812,0.345 -13.432,3.272c-4.011,3.243 -6.91,7.896 -7.435,13.432c-0.026,2.255 0.168,4.476 0.932,6.476c0.788,2.062 2.231,3.724 3.697,5.314c2.5,2.71 5.92,4.142 9.477,5.299c2.137,0.695 4.378,1.233 6.761,1.216c5.145,0.17 9.935,-1.618 13.399,-4.906c3.557,-3.375 5.834,-8.115 5.936,-13.399c-0.294,-5.196 -2.821,-9.703 -6.455,-12.881c-3.393,-2.967 -8.035,-4.197 -12.88,-3.823Zm-166.667,-16.667c9.014,0.695 16.999,4.537 22.521,10.85c5.287,6.046 8.708,13.876 8.218,22.521c0.165,8.536 -3.286,16.256 -8.737,22.001c-5.546,5.844 -13.322,9.481 -22.002,9.768c-3.428,0.013 -6.791,-0.355 -9.828,-1.522c-4.686,-1.801 -8.686,-4.841 -11.741,-8.679c-2.929,-3.679 -4.887,-7.919 -6.13,-12.568c-0.772,-2.884 -1.474,-5.855 -1.509,-9c-0.792,-8.341 2.352,-15.926 7.238,-21.97c5.242,-6.482 13.045,-10.359 21.97,-11.401Zm-0,16.667c-4.985,-0.582 -9.812,0.345 -13.432,3.272c-4.011,3.243 -6.91,7.896 -7.435,13.432c-0.025,2.255 0.169,4.476 0.932,6.476c0.788,2.062 2.232,3.724 3.698,5.314c2.499,2.71 5.919,4.142 9.476,5.299c2.137,0.695 4.379,1.233 6.761,1.216c5.145,0.17 9.935,-1.618 13.4,-4.906c3.556,-3.375 5.833,-8.115 5.936,-13.399c-0.295,-5.196 -2.822,-9.703 -6.455,-12.881c-3.394,-2.967 -8.036,-4.197 -12.881,-3.823Zm-24.963,91.666l50,3.409c8.138,0.38 15.288,3.953 20.509,9.416c1.57,1.644 2.968,3.439 4.228,5.345c2.913,4.405 4.808,9.513 5.178,15.164c0.655,8.479 -2.461,16.316 -7.692,22.222c-2.19,2.472 -4.852,4.514 -7.79,6.09c-4.284,2.298 -9.241,3.439 -14.433,3.42l-50,-0.987c-8.494,0.031 -16.107,-3.496 -21.787,-8.958c-5.758,-5.535 -9.423,-13.183 -9.73,-21.787c-0.395,-8.824 3.093,-16.849 8.613,-22.905c5.678,-6.228 13.829,-9.996 22.904,-10.429Zm0,16.667c-4.738,-0.226 -9.192,1.258 -12.444,4.222c-3.423,3.121 -5.815,7.457 -6.039,12.445c-0.185,5.202 1.576,10.08 4.923,13.56c3.409,3.547 8.257,5.675 13.56,5.694l50,-0.986c2.979,-0.012 5.758,-0.806 8.267,-2.026c1.751,-0.85 3.416,-1.838 4.859,-3.116c3.732,-3.305 6.546,-7.769 6.96,-13.126c0.231,-3.359 -0.141,-6.621 -1.461,-9.484c-0.925,-2.006 -2.211,-3.836 -3.785,-5.356c-3.79,-3.661 -9.165,-5.501 -14.84,-5.236l-50,3.409Zm170.834,-16.667l50,3.409c8.137,0.38 15.288,3.953 20.508,9.416c1.571,1.644 2.968,3.439 4.229,5.345c2.912,4.405 4.807,9.513 5.177,15.164c0.655,8.479 -2.461,16.316 -7.692,22.222c-2.19,2.472 -4.852,4.514 -7.789,6.09c-4.285,2.298 -9.242,3.439 -14.433,3.42l-50,-0.987c-8.495,0.031 -16.108,-3.496 -21.788,-8.958c-5.757,-5.535 -9.423,-13.183 -9.729,-21.787c-0.396,-8.824 3.093,-16.849 8.612,-22.905c5.678,-6.228 13.83,-9.996 22.905,-10.429Zm-0,16.667c-4.739,-0.226 -9.192,1.258 -12.445,4.222c-3.422,3.121 -5.815,7.457 -6.038,12.445c-0.186,5.202 1.575,10.08 4.922,13.56c3.41,3.547 8.257,5.675 13.561,5.694l50,-0.986c2.979,-0.012 5.757,-0.806 8.266,-2.026c1.751,-0.85 3.416,-1.838 4.86,-3.116c3.731,-3.305 6.545,-7.769 6.959,-13.126c0.232,-3.359 -0.141,-6.621 -1.461,-9.484c-0.925,-2.006 -2.21,-3.836 -3.784,-5.356c-3.791,-3.661 -9.166,-5.501 -14.84,-5.236l-50,3.409Z" style="fill:#268f93;"/></g><g id="Text"></g></g></g></svg>