<?xml version="1.0" encoding="UTF-8" standalone="no"?><!DOCTYPE svg PUBLIC "-//W3C//DTD SVG 1.1//EN" "http://www.w3.org/Graphics/SVG/1.1/DTD/svg11.dtd"><svg width="100%" height="100%" viewBox="0 0 334 334" version="1.1" xmlns="http://www.w3.org/2000/svg" xmlns:xlink="http://www.w3.org/1999/xlink" xml:space="preserve" xmlns:serif="http://www.serif.com/" style="fill-rule:evenodd;clip-rule:evenodd;stroke-linecap:square;stroke-linejoin:round;stroke-miterlimit:10;"><rect id="Assets" x="-41.667" y="-41.667" width="12500" height="20833.3" style="fill:none;"/><g id="Assets1" serif:id="Assets"><g id="Pages-Styles" serif:id="Pages Styles"></g><g id="Layout-Card" serif:id="Layout Card"></g><g id="Nuget"><g id="Strange-shapes" serif:id="Strange shapes"></g><g id="Icons"><path d="M274.425,113.075c28.542,3.804 50.575,28.179 50.575,57.758c-0,32.217 -26.117,58.334 -58.333,58.334l-200,-0c-32.217,-0 -58.334,-26.117 -58.334,-58.334c0,-32.216 26.117,-58.333 58.334,-58.333c3.2,0 6.316,0.325 9.375,0.825c-0.663,-2.95 -1.042,-6.008 -1.042,-9.158c-0,-23.013 18.654,-41.667 41.667,-41.667c6.6,0 12.816,1.579 18.362,4.308c12.954,-22.475 37.167,-37.641 64.971,-37.641c41.421,-0 75,33.579 75,75c-0,3.021 -0.229,5.983 -0.575,8.908Zm-191.129,32.758c-13.819,0 -25.037,11.219 -25.037,25.038c-0,13.818 11.218,25.037 25.037,25.037c13.818,0 25.037,-11.219 25.037,-25.037c0,-13.819 -11.219,-25.038 -25.037,-25.038Zm166.667,0c-13.819,0 -25.038,11.219 -25.038,25.038c0,13.818 11.219,25.037 25.038,25.037c13.818,0 25.037,-11.219 25.037,-25.037c-0,-13.819 -11.219,-25.038 -25.037,-25.038Zm-108.371,25.038c-0,13.818 11.219,25.037 25.037,25.037c13.819,0 25.038,-11.219 25.038,-25.037c-0,-13.819 -50.075,-13.819 -50.075,-0Zm-83.259,83.296l50,-0c13.798,-0 25,11.202 25,25c0,13.798 -11.202,25 -25,25l-50,-0c-13.798,-0 -25,-11.202 -25,-25c0,-13.798 11.202,-25 25,-25Zm170.834,-0l50,-0c13.798,-0 25,11.202 25,25c-0,13.798 -11.202,25 -25,25l-50,-0c-13.798,-0 -25,-11.202 -25,-25c-0,-13.798 11.202,-25 25,-25Z" style="fill:#9984cd;stroke:#502793;stroke-width:16.67px;"/></g><g id="Text"></g></g></g></svg>