<?xml version="1.0" encoding="UTF-8" standalone="no"?>
<!DOCTYPE svg PUBLIC "-//W3C//DTD SVG 1.1//EN" "http://www.w3.org/Graphics/SVG/1.1/DTD/svg11.dtd">
<svg width="100%" height="100%" viewBox="0 0 80 80" version="1.1" xmlns="http://www.w3.org/2000/svg" xmlns:xlink="http://www.w3.org/1999/xlink" xml:space="preserve" xmlns:serif="http://www.serif.com/" style="fill-rule:evenodd;clip-rule:evenodd;stroke-linejoin:round;stroke-miterlimit:2;">
    <g transform="matrix(1,0,0,1,-2840,-370)">
        <g transform="matrix(1,0,0,1.2,2700,0)">
            <rect id="NWDFoundation" x="0" y="0" width="800" height="400" style="fill:none;"/>
            <g id="NWDFoundation1" serif:id="NWDFoundation">
                <g id="GABARITS" transform="matrix(1,0,0,0.833333,-10,4.73695e-13)">
                    <g id="TO-HELP" serif:id="TO HELP">
                    </g>
                    <g id="BACKGROUND">
                    </g>
                    <g id="TO-HELP1" serif:id="TO HELP">
                    </g>
                </g>
                <g transform="matrix(1,0,0,0.833333,-1030,307.512)">
                    <g transform="matrix(1.00484,0,0,0.502419,-95.9552,-70.4155)">
                        <path d="M1299.7,219.713L1337.51,257.53L1299.7,295.347L1261.88,257.53L1299.7,219.713Z" style="fill:rgb(153,153,153);"/>
                        <path d="M1300.59,216.152C1300.59,216.152 1309.9,226.139 1319.25,236.042C1328.59,245.943 1337.96,255.748 1337.96,255.748C1338.3,256.086 1338.51,256.775 1338.51,257.53C1338.51,258.284 1338.3,258.974 1337.96,259.312C1337.96,259.312 1334.81,262.288 1330.39,266.838C1324.32,273.087 1315.92,282.462 1309.48,289.118C1304.29,294.497 1300.41,298.223 1300.41,298.223C1299.96,298.676 1299.43,298.676 1298.98,298.223L1261.27,259.966C1260.81,259.505 1260.52,258.562 1260.52,257.53C1260.52,256.498 1260.81,255.555 1261.27,255.094C1261.27,255.094 1266.24,250.032 1272.55,243.503C1283.62,232.056 1298.81,216.152 1298.81,216.152C1299.37,215.592 1300.03,215.592 1300.59,216.152ZM1299.71,224.112C1296.28,227.385 1283.52,239.569 1273.89,248.867C1270.24,252.396 1267.04,255.513 1264.97,257.538C1264.97,257.538 1299.68,291.747 1299.68,291.747C1301.01,290.382 1304.13,287.217 1308.06,283.424C1314.58,277.126 1323.37,269.311 1329.51,263.349C1331.93,261.005 1333.94,258.976 1335.28,257.605C1332.07,254.552 1325.02,247.852 1317.96,241.201C1310.14,233.834 1302.31,226.534 1299.71,224.112Z" style="fill:rgb(77,77,77);"/>
                    </g>
                    <g transform="matrix(1,0,0,1,-90,-180)">
                        <path d="M1262.03,228.972C1262.03,228.972 1262,222.888 1262,220C1262,212.268 1268.27,206 1276,206C1276.77,206 1277.52,206.078 1278.25,206.198C1278.09,205.49 1278,204.756 1278,204C1278,198.477 1282.48,194 1288,194C1289.58,194 1291.08,194.379 1292.41,195.034C1295.52,189.64 1301.33,186 1308,186C1317.94,186 1326,194.059 1326,204C1326,204.725 1325.94,205.436 1325.86,206.138C1332.71,207.051 1338,212.901 1338,220C1338,222.879 1338.03,228.972 1338.03,228.972L1300.03,247.972L1262.03,228.972Z" style="fill:rgb(205,132,203);fill-rule:nonzero;"/>
                        <path d="M1276.7,204.648C1276.69,204.433 1276.69,204.218 1276.69,204C1276.75,200.896 1278.04,198.102 1280.1,196.102C1282.14,194.124 1284.93,192.903 1288,192.95C1288.86,192.962 1289.7,193.072 1290.5,193.271C1291.02,193.402 1291.53,193.568 1292.02,193.768C1293.66,191.23 1295.9,189.125 1298.5,187.582C1301.3,185.928 1304.52,184.917 1308,184.852C1313.33,184.734 1318.21,186.803 1321.76,190.239C1325.36,193.715 1327.57,198.603 1327.63,204C1327.63,204 1327.58,204.803 1327.58,204.803C1330.8,205.57 1333.63,207.325 1335.73,209.741C1338.12,212.486 1339.55,216.075 1339.53,220L1339.51,228.966C1339.51,229.527 1339.19,230.042 1338.69,230.293C1338.69,230.293 1326.41,236.295 1315.84,241.593C1307.76,245.638 1300.68,249.281 1300.68,249.281C1300.27,249.487 1299.79,249.487 1299.37,249.281L1261.13,230.761C1260.46,230.424 1260.03,229.736 1260.03,228.982L1260.18,220C1260.27,215.662 1262.07,211.757 1264.97,208.971C1267.83,206.223 1271.72,204.534 1276,204.618C1276.24,204.622 1276.47,204.632 1276.7,204.648ZM1264,227.739C1264,227.739 1300.05,246.336 1300.05,246.336C1302.01,245.38 1308.01,242.451 1314.62,239.152C1323.56,234.687 1333.64,229.555 1336.54,228.073L1336.47,220C1336.45,216.864 1335.27,214.014 1333.34,211.839C1331.4,209.649 1328.7,208.148 1325.65,207.754C1324.76,207.636 1324.14,206.831 1324.24,205.947L1324.37,204C1324.42,199.456 1322.62,195.334 1319.69,192.306C1316.72,189.232 1312.61,187.25 1308,187.148C1304.91,187.09 1301.98,187.833 1299.48,189.261C1296.88,190.741 1294.75,192.936 1293.27,195.529C1293.01,195.982 1292.44,196.155 1291.97,195.924C1291.36,195.632 1290.71,195.405 1290.03,195.255C1289.38,195.11 1288.7,195.04 1288,195.05C1285.55,195.087 1283.34,196.121 1281.76,197.756C1280.2,199.368 1279.26,201.58 1279.31,204C1279.31,204.323 1279.34,204.641 1279.38,204.954C1279.42,205.277 1279.49,205.593 1279.56,205.904C1279.66,206.339 1279.53,206.795 1279.23,207.119C1278.92,207.444 1278.47,207.596 1278.03,207.524L1276,207.382C1272.55,207.45 1269.45,208.921 1267.23,211.23C1265.05,213.5 1263.75,216.605 1263.82,220L1264,227.739Z" style="fill:rgb(147,39,143);"/>
                    </g>
                </g>
                <g transform="matrix(1,0,0,0.833333,-240,-191.659)">
                    <g transform="matrix(1,0,0,1,290,-449.991)">
                        <path d="M108,1109L130,1097.98L152,1109L130,1120L108,1109Z" style="fill:rgb(217,217,217);"/>
                        <path d="M107.104,1107.21C107.104,1107.21 114.317,1103.96 120.54,1101.07C125.288,1098.87 129.45,1096.88 129.45,1096.88C129.796,1096.71 130.204,1096.71 130.55,1096.88C130.55,1096.88 135.989,1099.76 141.48,1102.53C146.97,1105.31 152.51,1107.98 152.51,1107.98C152.895,1108.17 153.139,1108.57 153.139,1109C153.138,1109.43 152.895,1109.83 152.509,1110.02L130.677,1121.35C130.251,1121.57 129.749,1121.57 129.323,1121.35L107.106,1110.79C106.428,1110.45 106,1109.76 106,1109C106,1108.24 106.427,1107.55 107.104,1107.21ZM112.222,1108.96L130.03,1118.31C130.03,1118.31 149.448,1108.96 149.448,1108.96C147.362,1107.89 143.951,1106.15 140.52,1104.45C136.07,1102.24 131.589,1100.1 130.028,1099.36C128.785,1100.01 125.484,1101.75 121.86,1103.71C118.465,1105.54 114.789,1107.55 112.222,1108.96Z" style="fill:rgb(77,77,77);"/>
                    </g>
                    <g transform="matrix(1,0,0,0.98205,121,305.977)">
                        <path d="M308,333L290,333L290,359C296.729,363.741 302.05,363.555 308,359L308,333Z" style="fill:rgb(217,217,217);"/>
                        <path d="M310,333L309.447,359C309.447,359.463 309.233,359.9 308.87,360.178C305.478,362.678 302.286,363.887 299.001,363.778C295.965,363.678 292.821,362.461 289.358,359.945C289.054,359.73 288.872,359.377 288.872,359C288.872,359 288.962,352.5 288.912,346C288.861,339.498 288.669,333 288.669,333C288.669,332.252 289.265,331.645 290,331.645L308,330.963C309.105,330.963 310,331.875 310,333ZM306.042,334.962C306.042,334.962 291.292,334.404 291.292,334.404C291.234,336.664 291.125,341.331 291.088,346C291.047,351.299 291.099,356.598 291.121,358.376C293.982,360.249 296.555,361.192 299.043,361.192C301.585,361.192 304.003,360.173 306.537,358.279L306.042,334.962Z" style="fill:rgb(77,77,77);"/>
                    </g>
                    <g transform="matrix(1,0,0,1.2,120,226.6)">
                        <path d="M297,347L297,357" style="fill:none;"/>
                        <path d="M295,347C295,346.08 295.896,345.333 297,345.333C298.104,345.333 299,346.08 299,347C299,347 298.67,347.766 298.338,349C298.27,349.253 298.214,349.514 298.172,349.8C298.116,350.182 298.062,350.584 298.066,351C298.074,351.8 298.213,352.621 298.328,353.4C298.622,355.388 299,357 299,357C299,357.92 298.104,358.667 297,358.667C295.896,358.667 295,357.92 295,357C295,357 295.378,355.388 295.672,353.4C295.787,352.621 295.926,351.8 295.934,351C295.938,350.584 295.884,350.182 295.828,349.8C295.786,349.514 295.73,349.253 295.662,349C295.33,347.766 295,347 295,347Z" style="fill:rgb(153,153,153);"/>
                    </g>
                    <g transform="matrix(1,0,0,1.2,127,226.6)">
                        <path d="M296,347L296,357" style="fill:none;"/>
                        <path d="M294,347C294,346.08 294.896,345.333 296,345.333C297.104,345.333 298,346.08 298,347C298,347 297.67,347.766 297.338,349C297.27,349.253 297.214,349.514 297.172,349.8C297.116,350.182 297.062,350.584 297.066,351C297.074,351.8 297.213,352.621 297.328,353.4C297.622,355.388 298,357 298,357C298,357.92 297.104,358.667 296,358.667C294.896,358.667 294,357.92 294,357C294,357 294.378,355.388 294.672,353.4C294.787,352.621 294.926,351.8 294.934,351C294.938,350.584 294.884,350.182 294.828,349.8C294.786,349.514 294.73,349.253 294.662,349C294.33,347.766 294,347 294,347Z" style="fill:rgb(153,153,153);"/>
                    </g>
                    <g transform="matrix(1,0,0,1,290,-475.991)">
                        <path d="M108,1109L130,1097.98L152,1109L130,1120L108,1109Z" style="fill:rgb(217,217,217);"/>
                        <path d="M107.104,1107.21C107.104,1107.21 114.317,1103.96 120.54,1101.07C125.288,1098.87 129.45,1096.88 129.45,1096.88C129.796,1096.71 130.204,1096.71 130.55,1096.88C130.55,1096.88 135.989,1099.76 141.48,1102.53C146.97,1105.31 152.51,1107.98 152.51,1107.98C152.895,1108.17 153.139,1108.57 153.139,1109C153.138,1109.43 152.895,1109.83 152.509,1110.02L130.677,1121.35C130.251,1121.57 129.749,1121.57 129.323,1121.35L107.106,1110.79C106.428,1110.45 106,1109.76 106,1109C106,1108.24 106.427,1107.55 107.104,1107.21ZM112.222,1108.96L130.03,1118.31C130.03,1118.31 149.448,1108.96 149.448,1108.96C147.362,1107.89 143.951,1106.15 140.52,1104.45C136.07,1102.24 131.589,1100.1 130.028,1099.36C128.785,1100.01 125.484,1101.75 121.86,1103.71C118.465,1105.54 114.789,1107.55 112.222,1108.96Z" style="fill:rgb(77,77,77);"/>
                    </g>
                    <g transform="matrix(0.362995,0,0,0.362995,372.811,230.442)">
                        <path d="M108,1109L130,1097.98L152,1109L130,1120L108,1109Z" style="fill:rgb(217,217,217);"/>
                        <path d="M105.533,1104.07C105.533,1104.07 112.962,1101.33 119.382,1098.76C124.26,1096.81 128.484,1094.96 128.484,1094.96C129.438,1094.48 130.562,1094.48 131.516,1094.96C131.516,1094.96 136.843,1098.04 142.322,1100.85C147.795,1103.66 153.404,1106.2 153.404,1106.2C154.466,1106.73 155.137,1107.81 155.136,1109C155.136,1110.19 154.465,1111.27 153.403,1111.81L131.864,1123.73C130.691,1124.31 129.309,1124.31 128.136,1123.73L105.536,1113.93C103.67,1113 102.491,1111.09 102.49,1109C102.49,1106.91 103.667,1105.01 105.533,1104.07ZM118.634,1108.73C118.634,1108.73 130.222,1115.34 130.222,1115.34C130.222,1115.34 144.883,1108.76 144.884,1108.76C143.287,1107.93 141.49,1107.02 139.678,1106.13C136.019,1104.34 132.305,1102.68 130.206,1101.76C128.665,1102.65 125.943,1104.24 123.018,1106.02C121.564,1106.9 120.067,1107.83 118.634,1108.73Z" style="fill:rgb(77,77,77);"/>
                    </g>
                </g>
            </g>
        </g>
    </g>
</svg>
