<?xml version="1.0" encoding="UTF-8" standalone="no"?>
<!DOCTYPE svg PUBLIC "-//W3C//DTD SVG 1.1//EN" "http://www.w3.org/Graphics/SVG/1.1/DTD/svg11.dtd">
<svg width="100%" height="100%" viewBox="0 0 60 60" version="1.1" xmlns="http://www.w3.org/2000/svg" xmlns:xlink="http://www.w3.org/1999/xlink" xml:space="preserve" xmlns:serif="http://www.serif.com/" style="fill-rule:evenodd;clip-rule:evenodd;stroke-linecap:square;stroke-linejoin:round;stroke-miterlimit:10;">
    <g transform="matrix(1,0,0,1,-378,-1604)">
        <g transform="matrix(1.875,0,0,5.55556,0,0)">
            <rect id="Assets" x="0" y="0" width="1600" height="900" style="fill:none;"/>
            <g id="Assets1" serif:id="Assets">
                <g id="Pages-Styles" serif:id="Pages Styles">
                </g>
                <g id="Layout-Card" serif:id="Layout Card">
                </g>
                <g id="Nuget">
                    <g id="Strange-shapes" serif:id="Strange shapes">
                    </g>
                    <g transform="matrix(0.538636,0,0,0.184718,217.6,293.102)">
                        <g id="Icons">
                            <path d="M0,11.999C-3.313,11.999 -6,9.313 -6,5.999C-6,2.686 -3.313,-0.001 0,-0.001C3.313,-0.001 6,2.686 6,5.999C6,9.313 3.313,11.999 0,11.999ZM19.43,9.566C19.895,7.043 19.871,4.387 19.281,1.725C19.281,1.725 20.974,1.35 22.577,0.994C23.337,0.826 23.989,0.35 24.372,-0.318C24.756,-0.985 24.835,-1.781 24.59,-2.508C24.095,-3.888 23.509,-5.212 22.824,-6.466C22.446,-7.143 21.79,-7.628 21.024,-7.798C20.257,-7.967 19.454,-7.805 18.817,-7.352C17.483,-6.425 16.103,-5.444 16.103,-5.444C14.615,-7.535 12.743,-9.299 10.611,-10.657C10.611,-10.657 11.561,-12.148 12.45,-13.544C12.863,-14.191 12.979,-14.979 12.771,-15.716C12.563,-16.452 12.049,-17.067 11.356,-17.411C10.171,-17.967 8.949,-18.451 7.692,-18.842C6.943,-19.067 6.132,-18.967 5.463,-18.566C4.794,-18.165 4.331,-17.501 4.192,-16.742C3.878,-15.132 3.566,-13.431 3.566,-13.431C1.043,-13.895 -1.612,-13.872 -4.274,-13.282C-4.274,-13.282 -4.659,-15.017 -5.018,-16.637C-5.182,-17.378 -5.653,-18.017 -6.318,-18.401C-6.983,-18.784 -7.78,-18.877 -8.517,-18.656C-9.945,-18.216 -11.337,-17.702 -12.641,-17.073C-13.343,-16.712 -13.852,-16.071 -14.037,-15.313C-14.221,-14.555 -14.063,-13.756 -13.603,-13.122C-12.577,-11.666 -11.443,-10.103 -11.443,-10.103C-13.534,-8.615 -15.299,-6.743 -16.656,-4.612C-16.656,-4.612 -18.084,-5.522 -19.454,-6.395C-20.118,-6.818 -20.934,-6.94 -21.695,-6.732C-22.456,-6.523 -23.09,-6.002 -23.436,-5.303C-23.994,-4.106 -24.479,-2.872 -24.868,-1.603C-25.086,-0.871 -24.979,-0.082 -24.574,0.568C-24.168,1.218 -23.502,1.669 -22.74,1.809C-21.13,2.121 -19.43,2.433 -19.43,2.433C-19.895,4.956 -19.871,7.611 -19.281,10.274C-19.281,10.274 -20.974,10.649 -22.577,11.005C-23.337,11.173 -23.989,11.649 -24.372,12.317C-24.756,12.984 -24.835,13.78 -24.59,14.507C-24.095,15.887 -23.508,17.21 -22.824,18.465C-22.446,19.142 -21.79,19.627 -21.024,19.796C-20.257,19.966 -19.454,19.804 -18.817,19.351C-17.483,18.424 -16.103,17.443 -16.103,17.443C-14.615,19.534 -12.743,21.298 -10.611,22.656C-10.611,22.656 -11.561,24.146 -12.45,25.542C-12.863,26.19 -12.979,26.978 -12.771,27.714C-12.562,28.45 -12.049,29.066 -11.355,29.41C-10.17,29.966 -8.949,30.45 -7.692,30.84C-6.943,31.066 -6.132,30.966 -5.463,30.565C-4.794,30.163 -4.331,29.5 -4.192,28.741C-3.878,27.131 -3.566,25.43 -3.566,25.43C-1.043,25.894 1.612,25.871 4.274,25.281C4.274,25.281 4.648,26.97 5.003,28.57C5.171,29.329 5.661,29.98 6.348,30.36C7.036,30.74 7.856,30.812 8.601,30.558C9.968,30.061 11.281,29.474 12.525,28.791C13.194,28.415 13.671,27.779 13.84,27.039C14.009,26.299 13.853,25.524 13.412,24.902C12.467,23.543 11.443,22.102 11.443,22.102C13.534,20.614 15.299,18.742 16.656,16.61C16.656,16.61 18.085,17.52 19.455,18.393C20.118,18.816 20.934,18.939 21.695,18.73C22.457,18.521 23.09,18.001 23.436,17.301C23.994,16.105 24.479,14.871 24.868,13.601C25.086,12.869 24.979,12.08 24.574,11.43C24.168,10.78 23.501,10.329 22.739,10.19C21.13,9.878 19.43,9.566 19.43,9.566Z" style="fill:rgb(153,132,205);fill-rule:nonzero;stroke:rgb(80,39,147);stroke-width:3.93px;"/>
                        </g>
                    </g>
                    <g id="Text">
                    </g>
                </g>
            </g>
        </g>
    </g>
</svg>
