<?xml version="1.0" encoding="UTF-8" standalone="no"?>
<!DOCTYPE svg PUBLIC "-//W3C//DTD SVG 1.1//EN" "http://www.w3.org/Graphics/SVG/1.1/DTD/svg11.dtd">
<svg width="100%" height="100%" viewBox="0 0 80 80" version="1.1" xmlns="http://www.w3.org/2000/svg" xmlns:xlink="http://www.w3.org/1999/xlink" xml:space="preserve" xmlns:serif="http://www.serif.com/" style="fill-rule:evenodd;clip-rule:evenodd;stroke-linejoin:round;stroke-miterlimit:2;">
    <g transform="matrix(1,0,0,1,-2840,-750)">
        <g transform="matrix(1,0,0,1.2,2700,560)">
            <rect id="NWDCrucial" x="0" y="0" width="800" height="400" style="fill:none;"/>
            <g id="NWDCrucial1" serif:id="NWDCrucial">
                <g id="GABARITS" transform="matrix(1,0,0,0.833333,-10,4.54747e-13)">
                    <g id="TO-HELP" serif:id="TO HELP">
                    </g>
                    <g id="BACKGROUND">
                    </g>
                </g>
                <g transform="matrix(1,0,0,0.833333,-1030,157.512)">
                    <g transform="matrix(1.00484,0,0,0.502419,-95.9552,-70.4155)">
                        <path d="M1299.7,219.713L1337.51,257.53L1299.7,295.347L1261.88,257.53L1299.7,219.713Z" style="fill:rgb(153,153,153);"/>
                        <path d="M1300.59,216.152C1300.59,216.152 1309.9,226.139 1319.25,236.042C1328.59,245.943 1337.96,255.748 1337.96,255.748C1338.3,256.086 1338.51,256.775 1338.51,257.53C1338.51,258.284 1338.3,258.974 1337.96,259.312C1337.96,259.312 1334.81,262.288 1330.39,266.838C1324.32,273.087 1315.92,282.462 1309.48,289.118C1304.29,294.497 1300.41,298.223 1300.41,298.223C1299.96,298.676 1299.43,298.676 1298.98,298.223L1261.27,259.966C1260.81,259.505 1260.52,258.562 1260.52,257.53C1260.52,256.498 1260.81,255.555 1261.27,255.094C1261.27,255.094 1266.24,250.032 1272.55,243.503C1283.62,232.056 1298.81,216.152 1298.81,216.152C1299.37,215.592 1300.03,215.592 1300.59,216.152ZM1299.71,224.112C1296.28,227.385 1283.52,239.569 1273.89,248.867C1270.24,252.396 1267.04,255.513 1264.97,257.538C1264.97,257.538 1299.68,291.747 1299.68,291.747C1301.01,290.382 1304.13,287.217 1308.06,283.424C1314.58,277.126 1323.37,269.311 1329.51,263.349C1331.93,261.005 1333.94,258.976 1335.28,257.605C1332.07,254.552 1325.02,247.852 1317.96,241.201C1310.14,233.834 1302.31,226.534 1299.71,224.112Z" style="fill:rgb(77,77,77);"/>
                    </g>
                    <g transform="matrix(1,0,0,1,-90,-180)">
                        <path d="M1262.03,228.972C1262.03,228.972 1262,222.888 1262,220C1262,212.268 1268.27,206 1276,206C1276.77,206 1277.52,206.078 1278.25,206.198C1278.09,205.49 1278,204.756 1278,204C1278,198.477 1282.48,194 1288,194C1289.58,194 1291.08,194.379 1292.41,195.034C1295.52,189.64 1301.33,186 1308,186C1317.94,186 1326,194.059 1326,204C1326,204.725 1325.94,205.436 1325.86,206.138C1332.71,207.051 1338,212.901 1338,220C1338,222.879 1338.03,228.972 1338.03,228.972L1300.03,247.972L1262.03,228.972Z" style="fill:rgb(205,132,203);fill-rule:nonzero;"/>
                        <path d="M1276.7,204.648C1276.69,204.433 1276.69,204.218 1276.69,204C1276.75,200.896 1278.04,198.102 1280.1,196.102C1282.14,194.124 1284.93,192.903 1288,192.95C1288.86,192.962 1289.7,193.072 1290.5,193.271C1291.02,193.402 1291.53,193.568 1292.02,193.768C1293.66,191.23 1295.9,189.125 1298.5,187.582C1301.3,185.928 1304.52,184.917 1308,184.852C1313.33,184.734 1318.21,186.803 1321.76,190.239C1325.36,193.715 1327.57,198.603 1327.63,204C1327.63,204 1327.58,204.803 1327.58,204.803C1330.8,205.57 1333.63,207.325 1335.73,209.741C1338.12,212.486 1339.55,216.075 1339.53,220L1339.51,228.966C1339.51,229.527 1339.19,230.042 1338.69,230.293C1338.69,230.293 1326.41,236.295 1315.84,241.593C1307.76,245.638 1300.68,249.281 1300.68,249.281C1300.27,249.487 1299.79,249.487 1299.37,249.281L1261.13,230.761C1260.46,230.424 1260.03,229.736 1260.03,228.982L1260.18,220C1260.27,215.662 1262.07,211.757 1264.97,208.971C1267.83,206.223 1271.72,204.534 1276,204.618C1276.24,204.622 1276.47,204.632 1276.7,204.648ZM1264,227.739C1264,227.739 1300.05,246.336 1300.05,246.336C1302.01,245.38 1308.01,242.451 1314.62,239.152C1323.56,234.687 1333.64,229.555 1336.54,228.073L1336.47,220C1336.45,216.864 1335.27,214.014 1333.34,211.839C1331.4,209.649 1328.7,208.148 1325.65,207.754C1324.76,207.636 1324.14,206.831 1324.24,205.947L1324.37,204C1324.42,199.456 1322.62,195.334 1319.69,192.306C1316.72,189.232 1312.61,187.25 1308,187.148C1304.91,187.09 1301.98,187.833 1299.48,189.261C1296.88,190.741 1294.75,192.936 1293.27,195.529C1293.01,195.982 1292.44,196.155 1291.97,195.924C1291.36,195.632 1290.71,195.405 1290.03,195.255C1289.38,195.11 1288.7,195.04 1288,195.05C1285.55,195.087 1283.34,196.121 1281.76,197.756C1280.2,199.368 1279.26,201.58 1279.31,204C1279.31,204.323 1279.34,204.641 1279.38,204.954C1279.42,205.277 1279.49,205.593 1279.56,205.904C1279.66,206.339 1279.53,206.795 1279.23,207.119C1278.92,207.444 1278.47,207.596 1278.03,207.524L1276,207.382C1272.55,207.45 1269.45,208.921 1267.23,211.23C1265.05,213.5 1263.75,216.605 1263.82,220L1264,227.739Z" style="fill:rgb(147,39,143);"/>
                    </g>
                </g>
                <g transform="matrix(1,0,0,0.833333,198,194.167)">
                    <path d="M0,4C-2.209,4 -4,2.209 -4,0C-4,-2.209 -2.209,-4 0,-4C2.209,-4 4,-2.209 4,0C4,2.209 2.209,4 0,4ZM-2,-12C-7.582,-12 -12.386,-8.726 -14.635,-4L-48,-4L-40,8L-36,8L-32,4L-28,8L-14.635,8C-12.386,12.726 -7.582,16 -2,16C5.732,16 12,9.732 12,2C12,-5.732 5.732,-12 -2,-12Z" style="fill:rgb(217,217,217);fill-rule:nonzero;"/>
                    <path d="M-2,-14C2.39,-13.915 6.341,-12.095 9.164,-9.164C11.949,-6.271 13.665,-2.332 13.585,2C13.519,6.281 11.734,10.123 8.9,12.9C6.088,15.658 2.25,17.386 -2,17.367C-5.027,17.386 -7.847,16.519 -10.235,15.026C-12.427,13.656 -14.249,11.749 -15.526,9.491L-28,9.599C-28.424,9.599 -28.831,9.431 -29.131,9.131L-31.998,6.295L-34.862,9.138C-35.164,9.44 -35.573,9.61 -36,9.61L-40,9.522C-40.509,9.522 -40.984,9.267 -41.266,8.844L-48.887,-3.408C-49.106,-3.736 -49.126,-4.156 -48.94,-4.503C-48.755,-4.85 -48.393,-5.066 -48,-5.066C-48,-5.066 -46.008,-4.984 -42.995,-4.96C-41.531,-4.948 -39.825,-4.96 -37.991,-4.986C-29.746,-5.106 -18.907,-5.416 -15.621,-5.513C-14.408,-7.859 -12.605,-9.85 -10.425,-11.326C-8.016,-12.956 -5.125,-13.909 -2,-14ZM-2,-10C-4.381,-10.069 -6.622,-9.47 -8.525,-8.337C-10.523,-7.147 -12.174,-5.423 -13.242,-3.337C-13.498,-2.8 -14.04,-2.458 -14.635,-2.458C-14.635,-2.458 -28.158,-2.87 -37.991,-3.014C-39.825,-3.04 -41.531,-3.052 -42.995,-3.04C-44.159,-3.031 -45.171,-3.013 -45.973,-2.994L-39.229,6.461L-36.685,6.405L-33.152,2.848C-32.516,2.211 -31.484,2.211 -30.848,2.848L-27.327,6.406L-14.635,6.517C-14.063,6.517 -13.541,6.846 -13.295,7.363C-12.291,9.521 -10.7,11.355 -8.716,12.636C-6.78,13.887 -4.477,14.618 -2,14.633C1.482,14.618 4.64,13.203 6.899,10.899C9.139,8.614 10.468,5.452 10.415,2C10.352,-1.401 8.906,-4.449 6.635,-6.635C4.403,-8.785 1.344,-10.065 -2,-10ZM0,6C-1.591,5.721 -2.973,5.065 -3.853,3.853C-4.65,2.754 -5.208,1.45 -5.001,0C-4.986,-0.483 -4.865,-0.935 -4.769,-1.385C-4.52,-2.555 -4.017,-3.568 -3.197,-4.398C-2.786,-4.813 -2.291,-5.125 -1.738,-5.349C-1.205,-5.564 -0.606,-5.619 0,-5.616C1.53,-5.54 2.897,-4.903 3.861,-3.861C4.802,-2.842 5.412,-1.495 5.368,0C5.498,1.522 4.881,2.889 3.985,3.985C3.034,5.149 1.611,5.813 0,6ZM0,2C0.615,2.071 1.228,2.034 1.672,1.672C2.172,1.262 2.572,0.695 2.632,0C2.611,-0.715 2.283,-1.346 1.796,-1.796C1.331,-2.226 0.682,-2.418 0,-2.384C-0.311,-2.388 -0.602,-2.315 -0.884,-2.233C-1.386,-2.087 -1.901,-2.008 -2.272,-1.649C-2.498,-1.431 -2.751,-1.231 -2.873,-0.934C-2.99,-0.649 -3.005,-0.325 -2.999,0C-2.888,0.781 -2.395,1.375 -1.804,1.804C-1.305,2.166 -0.655,2.115 0,2Z" style="fill:rgb(77,77,77);"/>
                </g>
            </g>
        </g>
    </g>
</svg>
